<svg width="47" height="70" viewBox="0 0 47 70" fill="none" xmlns="http://www.w3.org/2000/svg">
<path d="M23.388 28.418C36.338 28.418 46.768 37.538 46.768 48.878C46.768 60.218 36.338 69.338 23.388 69.338C10.438 69.338 0.00799561 60.208 0.00799561 48.878C0.00799561 37.548 10.428 28.418 23.388 28.418Z" fill="#0398BA"/>
<path d="M4.67798 26.218H42.088C44.678 26.218 46.768 27.388 46.768 28.838V47.718C46.768 49.168 44.678 50.328 42.088 50.328H4.67798C2.08798 50.328 -0.00201416 49.158 -0.00201416 47.718V28.838C-0.00201416 27.388 2.08798 26.218 4.67798 26.218Z" fill="#0398BA"/>
<path d="M7.01801 26.218C7.01801 1.85796 23.388 2.83802 23.388 2.83802C23.388 2.83802 39.758 1.86796 39.758 26.218" stroke="#0398BA" stroke-width="5.669" stroke-linecap="round" stroke-linejoin="round"/>
<path d="M23.388 43.758V53.108" stroke="white" stroke-width="6.08" stroke-linecap="round"/>
<path d="M29.228 43.758C29.228 46.988 26.608 49.608 23.378 49.608C20.148 49.608 17.528 46.988 17.528 43.758C17.528 40.528 20.148 37.908 23.378 37.908C26.608 37.918 29.228 40.528 29.228 43.758Z" fill="white"/>
</svg>
