<svg width="168" height="48" viewBox="0 0 168 48" fill="none" xmlns="http://www.w3.org/2000/svg">
<path d="M26.62 46.451C29.68 46.451 32.53 46.431 35.38 46.461C36.08 46.471 36.35 46.2711 36.5 45.5411C39.2 32.7011 41.93 19.8511 44.68 7.02107C45.16 4.74107 45.64 2.46108 46.16 0.0310835C43.15 0.0310835 40.3 0.061064 37.46 0.011064C36.66 0.00106398 36.41 0.311064 36.26 1.01106C35.17 6.24106 34.06 11.451 32.94 16.671C32.59 18.311 32.22 19.9511 31.87 21.5611H14.98L19.55 0.0310835C16.58 0.0310835 13.73 0.061064 10.88 0.011064C10.05 0.00106398 9.71 0.221142 9.53 1.09114C6.48 15.5911 3.39999 30.0911 0.299988 44.5911C0.179988 45.1711 0.11 45.761 0 46.441C3.15 46.441 6.13997 46.461 9.12997 46.411C9.35997 46.411 9.72999 45.981 9.79999 45.691C10.2 44.081 10.53 42.4511 10.87 40.8311C11.6 37.3811 12.33 33.931 13.07 30.451H29.98C28.87 35.781 27.77 41.021 26.62 46.451Z" fill="#111111"/>
<path d="M144.03 37.701C144.35 37.351 144.51 37.161 144.68 36.991C151.51 30.561 158.34 24.121 165.17 17.691C165.51 17.431 165.77 17.0709 165.92 16.6709C166.52 14.0809 167.06 11.4711 167.63 8.81108C167.36 8.76108 167.08 8.72098 166.81 8.70098C157.31 8.70098 147.82 8.69096 138.32 8.68096C137.82 8.59096 137.34 8.93096 137.26 9.43096C137.25 9.48096 137.25 9.52109 137.25 9.57109C136.92 11.3411 136.53 13.1009 136.16 14.8709C135.99 15.6909 135.81 16.521 135.6 17.501H152.96C152.56 17.901 152.31 18.1609 152.05 18.4109C145.43 24.6409 138.81 30.8809 132.19 37.1209C131.83 37.4609 131.33 37.811 131.22 38.241C130.58 40.931 130.04 43.6411 129.46 46.3211C129.56 46.3711 129.67 46.401 129.78 46.431C139.49 46.441 149.21 46.451 158.92 46.451C159.53 46.451 159.71 46.1709 159.82 45.6309C160.23 43.5409 160.69 41.4709 161.12 39.3809C161.23 38.8709 161.31 38.361 161.43 37.701H144.03Z" fill="#111111"/>
<path d="M124.65 0.0210071C121.73 0.0210071 118.95 0.0509876 116.18 0.000987585C115.26 -0.0190124 114.88 0.260929 114.69 1.19093C113.31 7.90093 111.83 14.591 110.46 21.301C109.53 25.891 108.48 30.4709 107.94 35.1109C107.34 38.5909 108.71 42.121 111.49 44.291C115 46.991 119.04 47.5208 123.3 46.8508C125.05 46.5708 125.06 46.531 125.43 44.771C125.88 42.671 126.31 40.571 126.74 38.491C124.95 38.491 123.29 38.581 121.65 38.471C118.45 38.271 117.14 36.681 117.67 33.541C118.22 30.311 118.95 27.1109 119.62 23.9009C120.06 21.7609 120.53 19.6209 121 17.4309H131.24C131.85 14.5409 132.46 11.7009 133.1 8.67091H122.86C123.46 5.73091 124.03 2.99101 124.65 0.0210071Z" fill="#111111"/>
<path d="M107.02 17.431C107.65 14.451 108.26 11.611 108.88 8.68102C103.17 7.43102 97.87 7.88113 93.06 11.2911C89.44 13.9511 86.96 17.8911 86.12 22.3111C84.58 28.9911 83.21 35.701 81.77 42.401C81.49 43.721 81.23 45.041 80.94 46.421H90.55C90.64 46.121 90.75 45.8612 90.81 45.5912C91.7 41.3912 92.55 37.1811 93.49 33.0011C94.29 29.4511 95.07 25.891 96.09 22.401C97 19.301 99.33 17.7111 102.52 17.4711C103.99 17.3311 105.47 17.431 107.02 17.431Z" fill="#111111"/>
<path d="M26.62 46.4509C27.76 41.0309 28.87 35.7909 30 30.4609H13.09C12.35 33.9409 11.63 37.391 10.89 40.841C10.54 42.461 10.21 44.0909 9.81998 45.7009C9.74998 45.9909 9.37999 46.4109 9.14999 46.4209C6.15999 46.4709 3.15999 46.4509 0.019989 46.4509C0.129989 45.7609 0.199977 45.1808 0.319977 44.6008C3.39998 30.1008 6.47999 15.6008 9.54999 1.10079C9.72999 0.230786 10.07 0.000952262 10.9 0.0209523C13.75 0.0609523 16.59 0.0409718 19.57 0.0409718L15 21.571H31.89C32.24 19.961 32.61 18.3209 32.96 16.6809C34.07 11.4609 35.19 6.24095 36.28 1.02095C36.43 0.310952 36.68 0.000952262 37.48 0.0209523C40.32 0.0709523 43.17 0.0409718 46.18 0.0409718C45.66 2.47097 45.19 4.75096 44.7 7.03096C41.97 19.871 39.24 32.711 36.52 45.551C36.37 46.291 36.1 46.4809 35.4 46.4709C32.53 46.4309 29.68 46.4509 26.62 46.4509Z" fill="#111111"/>
<path d="M80.47 18.5309C79.75 14.2609 76.78 10.7209 72.7 9.27093C65.03 6.36093 56.36 8.6609 51.15 14.9909C46.6 20.6309 44.53 27.861 45.39 35.051C46.07 41.361 49.9 45.6109 56.1 46.7109C62.82 47.9009 69.75 46.4308 75.41 42.6108C75.61 42.4608 75.81 42.2908 75.98 42.1108C74.69 39.9308 73.43 37.8109 72.19 35.7009C68.84 37.7309 65 38.8208 61.07 38.8608C57.49 38.8408 55.15 37.1909 54.55 34.1909C54.39 32.9509 54.31 31.7109 54.32 30.4609H79.79C80.9 26.5909 81.13 22.5109 80.47 18.5309ZM71.91 22.3808H56.71C56.72 22.2008 56.75 22.0208 56.8 21.8508C58.54 17.3908 63.31 14.9009 67.97 16.0309C70.77 16.6309 72.56 19.3909 71.97 22.1909C71.94 22.2509 71.93 22.3108 71.91 22.3808Z" fill="#111111"/>
<path d="M144.03 37.7009H161.43C161.31 38.3609 161.22 38.8709 161.12 39.3809C160.69 41.4609 160.23 43.5409 159.82 45.6309C159.71 46.1709 159.53 46.4509 158.92 46.4509C149.21 46.4309 139.49 46.4309 129.78 46.4309C129.67 46.4109 129.56 46.371 129.46 46.321C130.03 43.631 130.58 40.931 131.22 38.241C131.32 37.811 131.83 37.4608 132.19 37.1208C138.81 30.8808 145.43 24.6509 152.05 18.4109C152.31 18.1609 152.56 17.901 152.96 17.501H135.61C135.82 16.521 135.99 15.7008 136.17 14.8708C136.54 13.1108 136.93 11.351 137.26 9.57104C137.27 9.06104 137.68 8.66089 138.19 8.66089C138.24 8.66089 138.29 8.6709 138.33 8.6709C147.83 8.6909 157.32 8.70092 166.82 8.69092C167.1 8.71092 167.37 8.75103 167.64 8.80103C167.07 11.461 166.53 14.0709 165.93 16.6609C165.78 17.0609 165.52 17.4109 165.18 17.6809C158.36 24.1209 151.53 30.551 144.69 36.981C144.5 37.161 144.35 37.3509 144.03 37.7009Z" fill="#111111"/>
<path d="M124.65 0.0210071C124.03 2.99101 123.46 5.74091 122.85 8.67091H133.09C132.45 11.7009 131.84 14.5409 131.23 17.4309H120.99C120.52 19.6209 120.06 21.7609 119.61 23.9009C118.94 27.1109 118.21 30.311 117.66 33.541C117.12 36.691 118.44 38.271 121.64 38.471C123.28 38.571 124.94 38.491 126.73 38.491C126.3 40.571 125.87 42.671 125.42 44.771C125.04 46.531 125.04 46.5708 123.29 46.8508C119.03 47.5208 115 46.991 111.48 44.291C108.69 42.121 107.33 38.5909 107.93 35.1109C108.48 30.4709 109.52 25.881 110.45 21.301C111.82 14.591 113.3 7.90093 114.68 1.19093C114.87 0.260929 115.25 -0.0190124 116.17 0.000987585C118.95 0.0509876 121.72 0.0210071 124.65 0.0210071Z" fill="#111111"/>
<path d="M107.02 17.431C105.47 17.431 103.99 17.341 102.52 17.451C99.33 17.691 97 19.281 96.09 22.381C95.07 25.871 94.29 29.4311 93.49 32.9811C92.55 37.1711 91.7 41.3712 90.81 45.5712C90.75 45.8412 90.64 46.111 90.55 46.401H80.94C81.23 45.021 81.49 43.691 81.77 42.381C83.21 35.681 84.58 28.9711 86.12 22.2911C86.96 17.8711 89.44 13.9411 93.06 11.2711C97.86 7.86111 103.17 7.411 108.88 8.661C108.26 11.601 107.65 14.451 107.02 17.431Z" fill="#111111"/>
</svg>
