<svg width="64" height="64" viewBox="0 0 64 64" fill="none" xmlns="http://www.w3.org/2000/svg">
<path d="M31.997 -0.000976562C30.827 0.0190234 29.667 0.0990234 28.507 0.249023C27.107 0.409023 26.037 1.57901 26.017 2.98901V5.979C25.997 6.639 25.537 7.199 24.897 7.349C23.057 7.949 21.257 8.69905 19.547 9.58905C18.987 9.94905 18.247 9.83905 17.807 9.33905L15.687 7.21899C14.667 6.30899 13.147 6.25905 12.077 7.08905C10.237 8.55905 8.56699 10.229 7.09698 12.069C6.19698 13.119 6.24699 14.689 7.22699 15.679L9.34698 17.799C9.85699 18.239 9.95698 18.979 9.59698 19.539C8.61699 21.219 7.86699 23.019 7.35699 24.889C7.20699 25.529 6.647 25.989 5.987 26.009H2.99701C1.58701 26.039 0.426958 27.099 0.256958 28.499C0.106958 29.659 0.026958 30.819 0.00695801 31.989C0.026958 33.159 0.106958 34.319 0.256958 35.479C0.416958 36.879 1.58701 37.949 2.99701 37.969H5.987C6.647 37.989 7.20699 38.4491 7.35699 39.0891C7.95699 40.9291 8.70698 42.729 9.59698 44.439C9.95698 44.999 9.84698 45.739 9.34698 46.179L7.22699 48.299C6.31699 49.319 6.26698 50.839 7.09698 51.909C8.56699 53.749 10.237 55.419 12.077 56.889C13.127 57.789 14.697 57.739 15.687 56.769L17.807 54.649C18.247 54.139 18.987 54.039 19.547 54.399C21.227 55.379 23.027 56.129 24.897 56.639C25.537 56.789 25.997 57.349 26.017 58.009V60.999C26.047 62.409 27.107 63.569 28.507 63.739C29.667 63.889 30.827 63.969 31.997 63.989C33.167 63.969 34.327 63.889 35.487 63.739C36.887 63.579 37.957 62.409 37.977 60.999V58.009C37.997 57.349 38.457 56.789 39.097 56.639C40.937 56.039 42.737 55.289 44.447 54.399C45.007 54.039 45.747 54.149 46.187 54.649L48.307 56.769C49.327 57.679 50.847 57.729 51.917 56.889C53.757 55.419 55.427 53.749 56.897 51.909C57.797 50.859 57.747 49.289 56.767 48.299L54.647 46.179C54.137 45.739 54.037 44.999 54.397 44.439C55.377 42.759 56.127 40.959 56.637 39.0891C56.787 38.4491 57.347 37.989 58.007 37.969H60.997C62.407 37.939 63.567 36.879 63.737 35.479C63.887 34.319 63.967 33.159 63.987 31.989C63.967 30.819 63.887 29.659 63.737 28.499C63.577 27.099 62.407 26.029 60.997 26.009H58.007C57.347 25.989 56.787 25.529 56.637 24.889C56.037 23.049 55.287 21.249 54.397 19.539C54.037 18.979 54.147 18.239 54.647 17.799L56.767 15.679C57.677 14.659 57.727 13.139 56.897 12.069C55.427 10.229 53.757 8.55905 51.917 7.08905C50.867 6.18905 49.297 6.24899 48.307 7.21899L46.187 9.33905C45.747 9.84905 45.007 9.94905 44.447 9.58905C42.767 8.60905 40.967 7.859 39.097 7.349C38.457 7.199 37.997 6.639 37.977 5.979V2.98901C37.947 1.57901 36.887 0.419023 35.487 0.249023C34.327 0.0990234 33.167 0.0190234 31.997 -0.000976562ZM31.997 15.319C41.217 15.319 48.687 22.789 48.687 32.009C48.687 41.229 41.217 48.699 32.007 48.699C22.787 48.699 15.317 41.229 15.317 32.009C15.317 22.789 22.787 15.319 31.997 15.319Z" fill="#0398BA"/>
<path d="M31.997 43.099C38.1274 43.099 43.097 38.1294 43.097 31.999C43.097 25.8687 38.1274 20.899 31.997 20.899C25.8666 20.899 20.897 25.8687 20.897 31.999C20.897 38.1294 25.8666 43.099 31.997 43.099Z" fill="#0398BA"/>
</svg>
