<svg width="71" height="71" viewBox="0 0 71 71" fill="none" xmlns="http://www.w3.org/2000/svg">
<path d="M2.474 37.525C6.614 41.525 11.244 44.985 16.254 47.825C16.164 46.615 16.104 45.395 16.074 44.175C15.974 39.825 16.264 35.475 16.934 31.175C11.894 32.765 7.054 34.895 2.474 37.525Z" fill="#0398BA"/>
<path d="M19.254 49.445C22.894 51.295 26.674 52.845 30.564 54.085C30.844 54.175 31.134 54.265 31.414 54.345C32.344 52.505 34.394 51.545 36.404 51.995C40.234 45.585 42.484 38.365 42.994 30.915C41.544 30.385 40.474 29.155 40.154 27.645C33.334 27.585 26.544 28.465 19.964 30.275C18.844 36.605 18.604 43.055 19.254 49.445Z" fill="#0398BA"/>
<path d="M17.484 28.035C18.074 25.075 18.824 22.145 19.754 19.275C19.914 18.775 20.084 18.275 20.254 17.785C19.264 16.975 18.674 15.775 18.624 14.495C15.384 13.485 12.074 12.695 8.734 12.135C3.194 18.465 0.0939978 26.575 0.0039978 34.995C0.143998 35.155 0.294006 35.305 0.434006 35.465C5.79401 32.295 11.514 29.805 17.484 28.035Z" fill="#0398BA"/>
<path d="M23.084 18.805C23.014 18.805 22.954 18.805 22.884 18.805C22.734 19.255 22.584 19.695 22.434 20.145C21.684 22.495 21.054 24.835 20.544 27.185C26.744 25.595 33.114 24.795 39.504 24.795C35.394 21.865 30.984 19.3751 26.354 17.3651C25.524 18.2851 24.334 18.805 23.084 18.805Z" fill="#0398BA"/>
<path d="M16.584 51.245C13.344 49.505 10.234 47.525 7.284 45.325C4.784 43.465 2.424 41.435 0.194 39.255C1.554 51.725 9.414 62.545 20.854 67.705C20.754 67.465 20.654 67.215 20.564 66.975C18.574 61.915 17.244 56.635 16.584 51.245Z" fill="#0398BA"/>
<path d="M48.714 28.275C48.674 28.385 48.624 28.5051 48.574 28.6151C52.284 32.1051 55.564 36.025 58.334 40.295C60.344 43.385 62.054 46.675 63.434 50.095C64.054 51.635 64.594 53.195 65.054 54.765C68.764 49.095 70.764 42.485 70.804 35.705C63.994 31.805 56.494 29.285 48.714 28.275Z" fill="#0398BA"/>
<path d="M38.934 59.1151C37.754 60.6251 35.744 61.225 33.944 60.595C31.404 63.795 28.564 66.745 25.474 69.405C38.134 73.095 51.794 69.455 60.934 59.955C58.224 60.265 55.504 60.425 52.774 60.425C48.124 60.415 43.494 59.9751 38.934 59.1151Z" fill="#0398BA"/>
<path d="M44.194 16.285C44.764 18.275 45.184 20.295 45.464 22.335C47.054 22.685 48.334 23.865 48.804 25.425C52.334 25.895 55.824 26.645 59.234 27.665C63.204 28.855 67.034 30.435 70.674 32.405C69.124 14.145 53.894 0.0949951 35.574 -0.00500488C36.594 1.225 37.544 2.50502 38.434 3.83502C40.994 7.66502 42.934 11.865 44.194 16.285Z" fill="#0398BA"/>
<path d="M23.084 9.85504C23.204 9.85504 23.334 9.865 23.454 9.875C24.954 6.685 26.684 3.60503 28.614 0.655029C22.024 1.93503 15.944 5.065 11.074 9.685C13.884 10.235 16.674 10.935 19.414 11.785C20.244 10.575 21.624 9.85504 23.084 9.85504Z" fill="#0398BA"/>
<path d="M27.564 14.325C27.564 14.485 27.554 14.635 27.544 14.795C32.634 17.005 37.454 19.785 41.924 23.065C42.154 22.905 42.404 22.755 42.654 22.635C41.784 16.475 39.544 10.585 36.084 5.40503C34.914 3.65503 33.614 1.98504 32.204 0.415039C29.864 3.75504 27.804 7.29504 26.064 10.975C27.024 11.825 27.564 13.045 27.564 14.325Z" fill="#0398BA"/>
<path d="M46.634 30.655C46.374 30.795 46.094 30.905 45.814 30.995C45.684 33.185 45.404 35.365 44.964 37.515C44.244 41.035 43.154 44.475 41.714 47.765C40.854 49.715 39.894 51.625 38.814 53.465C39.504 54.275 39.884 55.3051 39.884 56.3651V56.415C44.134 57.195 48.454 57.585 52.774 57.595C56.104 57.595 59.434 57.355 62.724 56.855C61.284 51.525 59.004 46.455 55.964 41.835C53.304 37.755 50.174 34.005 46.634 30.655Z" fill="#0398BA"/>
<path d="M31.694 58.8651C31.354 58.3551 31.114 57.785 31.004 57.175C30.574 57.045 30.134 56.915 29.704 56.775C26.284 55.685 22.934 54.365 19.694 52.815C20.444 57.755 21.804 62.575 23.734 67.175C26.634 64.655 29.304 61.8751 31.694 58.8651Z" fill="#0398BA"/>
</svg>
