<svg width="73" height="63" viewBox="0 0 73 63" fill="none" xmlns="http://www.w3.org/2000/svg">
<path d="M3.876 22.108C3.096 21.798 2.21599 22.178 1.89599 22.958C1.07599 25.018 0.455994 27.138 0.0259935 29.308C-0.134006 30.138 0.396006 30.938 1.22601 31.098C1.32601 31.118 1.42599 31.128 1.52599 31.128C2.25599 31.128 2.87598 30.618 3.01598 29.898C3.40598 27.908 3.98598 25.968 4.73598 24.078C5.04598 23.298 4.666 22.418 3.876 22.108ZM8.92599 11.798C7.42599 13.428 6.086 15.178 4.906 17.048C4.476 17.768 4.70599 18.708 5.42599 19.138C6.12599 19.558 7.03601 19.348 7.47601 18.668C8.55601 16.958 9.786 15.338 11.156 13.848C11.736 13.238 11.716 12.278 11.116 11.698C10.506 11.118 9.546 11.138 8.966 11.738C8.956 11.768 8.93599 11.778 8.92599 11.798ZM30.376 17.618C29.506 16.748 28.106 16.748 27.236 17.608C27.236 17.608 27.236 17.608 27.226 17.618L16.606 28.238C15.746 29.108 15.746 30.508 16.606 31.378L20.866 35.638L34.636 21.878L30.376 17.618ZM50.576 51.578L50.346 46.558L32.046 28.258L27.246 33.058L45.546 51.358L50.576 51.578ZM61.476 10.688C50.436 -0.392007 33.556 -3.162 19.556 3.818C19.516 3.838 19.486 3.83798 19.446 3.85798L19.336 3.91797C19.316 3.92797 19.306 3.92799 19.296 3.93799C19.286 3.94799 19.276 3.94801 19.266 3.95801C17.356 4.92801 15.536 6.05797 13.826 7.34797C13.166 7.86797 13.046 8.81798 13.566 9.48798C14.076 10.138 14.996 10.268 15.666 9.77796C17.256 8.57796 18.946 7.528 20.716 6.628C37.166 -1.672 57.226 4.928 65.526 21.378C71.596 33.408 69.836 47.908 61.066 58.128L59.996 54.098L57.466 44.718H57.476L36.536 23.758L33.006 27.298L51.306 45.598L56.366 45.828L59.446 57.298L56.296 60.448L44.816 57.368L44.606 52.308L26.286 34.018L22.756 37.548L43.706 58.478H43.716L53.106 60.998L59.346 62.668C60.056 62.948 60.866 62.778 61.406 62.238C61.426 62.218 61.466 62.208 61.486 62.178C75.696 47.958 75.696 24.908 61.476 10.688Z" fill="#0398BA"/>
</svg>
