<svg width="222" height="24" viewBox="0 0 222 24" fill="none" xmlns="http://www.w3.org/2000/svg">
<path d="M220.596 9.01301C220.396 8.73301 220.236 8.43301 220.086 8.12301C220.346 8.01301 220.506 7.76301 220.506 7.48301C220.516 7.33301 220.446 7.18301 220.326 7.09301C220.156 7.00301 219.966 6.95301 219.776 6.97301C219.726 6.97301 219.626 6.98301 219.496 6.99301C219.336 7.00301 219.226 7.01301 219.166 7.01301L218.636 7.003C218.626 7.003 218.626 7.02301 218.626 7.05301C218.626 7.08301 218.626 7.09301 218.636 7.09301C218.766 7.09301 218.836 7.11301 218.876 7.15301C218.916 7.23301 218.936 7.33301 218.926 7.42301V9.03301C218.926 9.11301 218.926 9.18301 218.906 9.26301C218.896 9.30301 218.866 9.33301 218.826 9.35301C218.766 9.37301 218.696 9.38301 218.636 9.37301C218.626 9.37301 218.626 9.38301 218.626 9.41301C218.626 9.44301 218.626 9.453 218.636 9.453L219.166 9.44301L219.716 9.453C219.726 9.453 219.726 9.44301 219.726 9.41301C219.726 9.38301 219.726 9.37301 219.716 9.37301C219.636 9.37301 219.566 9.37301 219.496 9.35301C219.456 9.34301 219.416 9.30301 219.406 9.26301C219.386 9.19301 219.376 9.11301 219.386 9.03301V8.31301C219.496 8.31301 219.606 8.303 219.706 8.293C219.906 8.693 220.056 8.96301 220.166 9.16301C220.276 9.36301 220.356 9.46301 220.406 9.46301H221.096C221.106 9.46301 221.116 9.45301 221.116 9.43301C221.116 9.41301 221.106 9.40301 221.096 9.40301C220.886 9.31301 220.716 9.18301 220.596 9.01301ZM219.916 8.043C219.806 8.133 219.676 8.17301 219.536 8.16301C219.486 8.16301 219.426 8.16301 219.376 8.15301V7.44301C219.376 7.36301 219.376 7.27301 219.406 7.19301C219.416 7.15301 219.446 7.11301 219.486 7.10301C219.546 7.08301 219.606 7.08301 219.666 7.08301C219.916 7.08301 220.046 7.27301 220.046 7.65301C220.046 7.79301 220.006 7.933 219.916 8.043Z" fill="white"/>
<path d="M221.726 7.073C221.546 6.763 221.286 6.503 220.966 6.333C220.616 6.143 220.226 6.05301 219.836 6.06301C219.416 6.06301 218.996 6.153 218.616 6.343C218.246 6.523 217.926 6.803 217.706 7.143C217.476 7.493 217.356 7.913 217.366 8.333C217.356 8.733 217.466 9.123 217.686 9.453C217.896 9.773 218.186 10.023 218.526 10.203C218.856 10.373 219.226 10.463 219.606 10.463C220.026 10.463 220.446 10.363 220.816 10.153C221.176 9.953 221.476 9.653 221.686 9.303C221.896 8.943 222.016 8.533 222.006 8.123C222.006 7.753 221.916 7.393 221.726 7.073ZM221.126 9.743C220.806 10.103 220.346 10.293 219.866 10.273C219.506 10.273 219.146 10.183 218.836 10.003C218.516 9.823 218.256 9.553 218.076 9.233C217.886 8.883 217.786 8.493 217.796 8.093C217.796 7.773 217.856 7.453 217.996 7.163C218.126 6.883 218.326 6.65301 218.586 6.49301C218.886 6.31301 219.226 6.23301 219.576 6.24301C219.936 6.23301 220.296 6.323 220.616 6.503C220.916 6.673 221.166 6.933 221.326 7.243C221.506 7.593 221.586 7.973 221.586 8.363C221.586 8.863 221.436 9.353 221.126 9.743Z" fill="white"/>
<path d="M27.041 22.347C26.701 22.247 26.431 21.997 26.301 21.657C26.131 21.127 26.041 20.587 26.031 20.027L25.201 3.52698C25.081 2.76698 25.341 1.98698 25.901 1.44698C26.641 0.966977 27.531 0.73698 28.411 0.81698C28.461 0.81698 28.481 0.746979 28.481 0.596979C28.481 0.446979 28.461 0.376978 28.411 0.376978C27.781 0.376978 27.311 0.386979 27.001 0.416979L25.051 0.456979C24.661 0.456979 24.341 0.446979 24.071 0.416979C23.801 0.386979 23.591 0.376978 23.421 0.376978C23.201 0.366978 22.981 0.436975 22.811 0.576975C22.601 0.766975 22.441 1.00698 22.341 1.27698L15.161 17.737L7.221 2.24698C6.971 1.70698 6.671 1.19697 6.321 0.716974C6.131 0.486974 5.851 0.366978 5.561 0.376978C5.321 0.376978 5.081 0.386979 4.841 0.416979L3.141 0.456979C2.641 0.456979 2.221 0.446979 1.911 0.416979L0.361 0.376978C0.291 0.376978 0.250999 0.446979 0.250999 0.596979C0.250999 0.746979 0.291 0.81698 0.361 0.81698C1.001 0.80698 1.62099 0.996977 2.15099 1.35698C2.75099 1.80698 3.23099 2.38698 3.58099 3.05698L3.251 18.587C3.301 19.627 3.00099 20.657 2.40099 21.507C1.84099 22.187 0.991 22.557 0.111 22.517C0.0410001 22.517 0.000999451 22.587 0.000999451 22.737C0.000999451 22.887 0.0410001 22.957 0.111 22.957C0.761 22.957 1.271 22.947 1.631 22.917L3.76099 22.877L5.751 22.917C6.111 22.937 6.621 22.957 7.271 22.957C7.341 22.957 7.381 22.887 7.381 22.737C7.381 22.587 7.341 22.517 7.271 22.517C6.381 22.577 5.51099 22.207 4.94099 21.507C4.37099 20.647 4.111 19.617 4.201 18.587L4.531 4.86698L13.561 22.707C13.641 22.797 13.761 22.847 13.891 22.847C14.011 22.867 14.121 22.807 14.181 22.707L21.871 4.72698L22.591 20.037L22.631 20.647C22.711 21.207 22.511 21.777 22.091 22.167C21.421 22.467 20.691 22.597 19.961 22.527C19.911 22.527 19.891 22.597 19.891 22.747C19.891 22.897 19.911 22.967 19.961 22.967C20.751 22.967 21.371 22.957 21.801 22.927L24.331 22.887L26.931 22.927C27.411 22.947 28.051 22.967 28.841 22.967C28.891 22.967 28.911 22.897 28.911 22.747C28.911 22.597 28.861 22.527 28.811 22.527C28.221 22.557 27.621 22.497 27.041 22.347Z" fill="white"/>
<path d="M45.131 18.057C45.011 18.057 44.941 18.097 44.911 18.167C44.481 19.357 43.731 20.407 42.741 21.197C41.881 21.947 40.781 22.367 39.631 22.387H38.811C38.341 22.407 37.871 22.347 37.421 22.187C37.121 22.057 36.891 21.787 36.811 21.467C36.681 20.957 36.631 20.427 36.651 19.897V14.767C38.091 14.777 39.521 14.867 40.951 15.037C41.821 15.167 42.311 15.237 42.431 15.237C42.501 15.237 42.561 15.137 42.591 14.947C42.631 14.747 42.641 14.537 42.641 14.337C42.641 14.157 42.621 13.977 42.591 13.797C42.551 13.627 42.501 13.547 42.431 13.547C42.311 13.547 41.821 13.597 40.951 13.707C40.081 13.817 38.651 13.897 36.651 13.937V9.02699C36.631 8.49699 36.681 7.95699 36.811 7.43699C36.901 7.12699 37.131 6.86699 37.421 6.73699C37.871 6.57699 38.341 6.51699 38.811 6.53699H39.311C40.341 6.54699 41.321 6.93699 42.091 7.61699C42.941 8.31699 43.561 9.26699 43.861 10.327C43.881 10.397 43.961 10.437 44.091 10.437C44.221 10.437 44.291 10.397 44.291 10.327C44.291 9.62699 44.281 9.05699 44.251 8.59699L44.211 6.35699C44.211 6.16699 44.091 6.06699 43.851 6.06699H31.071C31.021 6.06699 31.001 6.13699 31.001 6.28699C31.001 6.43699 31.021 6.50699 31.071 6.50699C31.611 6.47699 32.141 6.54699 32.661 6.70699C32.981 6.82699 33.241 7.07699 33.351 7.40699C33.491 7.92699 33.551 8.45699 33.531 8.99699V20.047C33.551 20.587 33.491 21.127 33.351 21.657C33.251 21.987 32.991 22.247 32.661 22.357C32.141 22.497 31.611 22.557 31.071 22.537C31.021 22.537 31.001 22.607 31.001 22.757C31.001 22.907 31.021 22.977 31.071 22.977H44.501C44.661 22.997 44.811 22.947 44.931 22.847C45.011 22.727 45.051 22.577 45.041 22.427C45.041 21.317 45.121 19.897 45.291 18.167C45.311 18.087 45.251 18.057 45.131 18.057Z" fill="white"/>
<path d="M61.741 7.077C60.101 6.317 58.311 5.94699 56.501 5.99699C56.021 5.99699 55.301 6.01699 54.331 6.06699C53.561 6.13699 52.811 6.17699 52.091 6.17699C51.561 6.17699 50.811 6.15699 49.851 6.10699L48.121 6.06699C48.071 6.06699 48.051 6.13699 48.051 6.28699C48.051 6.43699 48.071 6.507 48.121 6.507C48.661 6.477 49.191 6.547 49.711 6.707C50.031 6.827 50.291 7.08699 50.401 7.40699C50.541 7.92699 50.601 8.45699 50.581 8.99699V20.047C50.601 20.587 50.541 21.127 50.401 21.657C50.301 21.987 50.041 22.247 49.711 22.357C49.181 22.497 48.631 22.567 48.081 22.537C48.031 22.537 48.011 22.607 48.011 22.757C48.011 22.907 48.031 22.977 48.081 22.977C48.831 22.977 49.421 22.967 49.851 22.937L52.091 22.897C52.641 22.897 53.141 22.907 53.571 22.937C54.001 22.957 54.361 22.987 54.651 23.007C55.491 23.077 56.251 23.117 56.931 23.117C58.601 23.147 60.261 22.767 61.751 21.997C63.121 21.287 64.261 20.217 65.051 18.897C65.851 17.547 66.271 15.997 66.241 14.417C66.261 12.897 65.861 11.397 65.081 10.087C64.291 8.76699 63.131 7.727 61.741 7.077ZM61.021 20.457C59.911 21.787 58.241 22.507 56.511 22.427C55.701 22.527 54.891 22.307 54.251 21.797C53.821 21.167 53.621 20.407 53.691 19.647V9.06699C53.611 8.37699 53.821 7.697 54.271 7.167C54.841 6.767 55.531 6.577 56.221 6.647C58.121 6.527 59.941 7.407 61.041 8.957C62.171 10.697 62.731 12.737 62.651 14.807C62.781 16.817 62.211 18.817 61.021 20.457Z" fill="white"/>
<path d="M74.851 7.45701C74.961 7.11701 75.221 6.84701 75.551 6.71701C76.061 6.54701 76.591 6.47701 77.121 6.49701C77.171 6.49701 77.191 6.42701 77.191 6.27701C77.191 6.12701 77.171 6.05701 77.121 6.05701L75.461 6.09701C74.501 6.14701 73.691 6.16701 73.041 6.16701C72.461 6.16701 71.721 6.14701 70.801 6.09701L69.031 6.05701C68.981 6.05701 68.961 6.12701 68.961 6.27701C68.961 6.42701 68.981 6.49701 69.031 6.49701C69.571 6.47701 70.121 6.53701 70.641 6.69701C70.971 6.80701 71.231 7.06701 71.341 7.39701C71.481 7.91701 71.541 8.44701 71.521 8.98701V20.037C71.541 20.577 71.481 21.117 71.341 21.647C71.241 21.977 70.981 22.237 70.651 22.347C70.121 22.487 69.571 22.557 69.021 22.527C68.971 22.527 68.951 22.597 68.951 22.747C68.951 22.897 68.971 22.967 69.021 22.967C69.771 22.967 70.361 22.957 70.791 22.927L73.031 22.887L75.411 22.927C75.821 22.947 76.391 22.967 77.111 22.967C77.161 22.967 77.181 22.897 77.181 22.747C77.181 22.597 77.161 22.527 77.111 22.527C76.571 22.547 76.041 22.487 75.521 22.347C75.191 22.237 74.941 21.977 74.831 21.647C74.691 21.127 74.631 20.577 74.651 20.037V9.06701C74.641 8.51701 74.701 7.97701 74.851 7.45701Z" fill="white"/>
<path d="M112.961 12.167C112.251 11.617 111.281 10.947 110.051 10.177C108.921 9.47699 108.021 8.87699 107.361 8.37699C106.711 7.87699 106.151 7.27699 105.701 6.58699C105.251 5.87699 105.021 5.05699 105.031 4.22699C104.981 3.27699 105.331 2.34699 105.991 1.66699C106.691 1.01699 107.621 0.67699 108.571 0.72699C110.011 0.63699 111.391 1.31699 112.201 2.51699C113.031 3.74699 113.681 5.09699 114.131 6.50699C114.151 6.60699 114.231 6.63699 114.361 6.59699C114.491 6.55699 114.561 6.50699 114.561 6.43699L114.451 1.52699C114.461 1.37699 114.421 1.23699 114.341 1.10699C114.231 0.976995 114.081 0.87699 113.911 0.83699C113.251 0.56699 112.561 0.366992 111.851 0.236992C111.041 0.0769919 110.221 0.00698853 109.391 0.00698853C108.191 0.00698853 106.991 0.216993 105.871 0.636993C104.801 1.01699 103.861 1.68699 103.141 2.56699C102.431 3.46699 102.061 4.59699 102.091 5.74699C102.071 6.67699 102.311 7.59699 102.781 8.39699C103.211 9.12699 103.781 9.77699 104.441 10.307C105.091 10.827 105.991 11.457 107.151 12.207C108.331 12.977 109.261 13.627 109.951 14.157C110.651 14.707 111.241 15.377 111.681 16.147C112.161 16.997 112.401 17.957 112.381 18.927C112.481 19.987 112.101 21.027 111.331 21.757C110.591 22.337 109.671 22.637 108.731 22.607C107.191 22.627 105.731 21.917 104.811 20.687C103.661 19.197 102.751 17.537 102.081 15.777C102.061 15.677 101.981 15.637 101.861 15.647C101.741 15.657 101.681 15.717 101.681 15.807V15.847L101.901 21.337C101.901 21.607 102.041 21.867 102.261 22.027C103.011 22.497 103.831 22.827 104.701 23.007C105.721 23.267 106.771 23.397 107.821 23.407C109.191 23.437 110.551 23.157 111.811 22.597C112.911 22.117 113.851 21.337 114.521 20.337C115.161 19.367 115.491 18.217 115.481 17.047C115.501 16.057 115.251 15.067 114.741 14.217C114.291 13.427 113.681 12.737 112.961 12.167Z" fill="white"/>
<path d="M133.021 6.877C131.671 6.037 130.101 5.597 128.511 5.637C126.921 5.637 125.361 5.997 123.921 6.687C122.451 7.367 121.181 8.427 120.261 9.757C119.291 11.167 118.791 12.847 118.841 14.557C118.831 16.097 119.211 17.607 119.941 18.957C120.661 20.297 121.731 21.407 123.041 22.187C124.421 23.007 126.001 23.427 127.611 23.397C129.291 23.417 130.941 22.987 132.401 22.157C133.821 21.367 135.011 20.207 135.851 18.817C136.681 17.457 137.121 15.897 137.111 14.307C137.111 12.847 136.741 11.407 136.041 10.117C135.321 8.787 134.281 7.677 133.021 6.877ZM132.131 20.617C131.341 21.867 129.951 22.627 128.471 22.607C127.311 22.617 126.191 22.187 125.331 21.417C124.351 20.527 123.611 19.407 123.181 18.157C122.641 16.667 122.381 15.097 122.401 13.517C122.291 11.697 122.731 9.887 123.661 8.317C124.471 7.127 125.841 6.447 127.271 6.507C128.481 6.487 129.661 6.897 130.591 7.667C131.571 8.497 132.321 9.577 132.761 10.787C133.281 12.177 133.541 13.657 133.521 15.137C133.631 17.057 133.151 18.977 132.131 20.617Z" fill="white"/>
<path d="M159.161 6.06701L157.531 6.10701C156.711 6.15701 156.051 6.17701 155.541 6.17701C155.031 6.17701 154.321 6.14701 153.411 6.10701L151.781 6.06701C151.711 6.06701 151.671 6.13701 151.671 6.28701C151.671 6.43701 151.711 6.50701 151.781 6.50701C152.241 6.47701 152.691 6.557 153.121 6.72701C153.411 6.877 153.621 7.14701 153.701 7.46701C153.811 7.99701 153.861 8.53701 153.841 9.07701V19.257C152.271 21.277 150.521 22.287 148.571 22.287C147.451 22.337 146.361 21.897 145.591 21.077C144.751 19.927 144.361 18.507 144.491 17.087V9.06701C144.471 8.52701 144.521 7.98701 144.651 7.45701C144.741 7.13701 144.961 6.86701 145.261 6.71701C145.701 6.54701 146.181 6.47701 146.651 6.49701C146.701 6.49701 146.721 6.42701 146.721 6.27701C146.721 6.12701 146.701 6.05701 146.651 6.05701L145.171 6.09701C144.261 6.14701 143.521 6.16701 142.971 6.16701C142.541 6.16701 141.911 6.14701 141.091 6.09701L139.681 6.05701C139.631 6.05701 139.611 6.12701 139.611 6.27701C139.611 6.42701 139.631 6.49701 139.681 6.49701C140.061 6.47701 140.441 6.53701 140.781 6.69701C141.031 6.85701 141.201 7.10701 141.251 7.39701C141.351 7.91701 141.391 8.45701 141.381 8.98701V18.047C141.271 19.577 141.891 21.067 143.061 22.057C144.261 22.977 145.751 23.447 147.271 23.397C148.471 23.407 149.651 23.147 150.741 22.637C151.921 22.057 152.971 21.247 153.841 20.257V22.287C153.841 22.597 153.881 22.797 153.971 22.867C154.141 22.957 154.341 22.997 154.531 22.977L156.731 22.937L159.081 22.977C159.151 22.977 159.191 22.907 159.191 22.757C159.191 22.607 159.151 22.537 159.081 22.537C158.631 22.557 158.171 22.497 157.741 22.357C157.441 22.227 157.221 21.967 157.141 21.657C157.011 21.127 156.961 20.587 156.981 20.047V8.98701C156.961 8.45701 157.011 7.91701 157.141 7.39701C157.231 7.08701 157.451 6.82701 157.751 6.69701C158.201 6.53701 158.671 6.47701 159.141 6.49701C159.211 6.49701 159.251 6.42701 159.251 6.27701C159.251 6.12701 159.231 6.06701 159.161 6.06701Z" fill="white"/>
<path d="M180.751 22.537C179.881 22.527 179.041 22.257 178.331 21.757C177.351 21.027 176.481 20.147 175.771 19.157C174.551 17.517 173.431 15.817 172.411 14.047C173.361 13.617 174.181 12.947 174.791 12.097C175.351 11.337 175.651 10.407 175.661 9.457C175.701 8.407 175.171 7.407 174.271 6.857C173.031 6.177 171.621 5.867 170.211 5.957C169.561 5.957 168.841 5.997 168.041 6.067C167.751 6.087 167.411 6.117 167.031 6.137C166.651 6.157 166.221 6.177 165.771 6.177C165.221 6.177 164.481 6.157 163.571 6.107L161.801 6.067C161.751 6.067 161.731 6.137 161.731 6.287C161.731 6.437 161.751 6.507 161.801 6.507C162.331 6.487 162.851 6.547 163.351 6.707C163.671 6.827 163.921 7.087 164.041 7.407C164.181 7.927 164.241 8.457 164.221 8.997V20.047C164.241 20.587 164.181 21.127 164.041 21.657C163.941 21.987 163.681 22.247 163.351 22.357C162.831 22.497 162.301 22.557 161.761 22.537C161.711 22.537 161.691 22.607 161.691 22.757C161.691 22.907 161.711 22.977 161.761 22.977C162.511 22.977 163.101 22.967 163.531 22.937L165.771 22.897L168.151 22.937C168.561 22.957 169.111 22.977 169.811 22.977C169.861 22.977 169.881 22.907 169.881 22.757C169.881 22.607 169.861 22.527 169.811 22.527C169.281 22.557 168.751 22.487 168.241 22.347C167.921 22.237 167.681 21.977 167.591 21.647C167.461 21.117 167.411 20.577 167.431 20.037V14.907C167.721 14.937 168.011 14.947 168.301 14.947C168.821 14.947 169.341 14.907 169.851 14.837C170.901 16.877 172.061 18.867 173.331 20.777C174.331 22.237 175.021 22.957 175.411 22.957H180.751C180.821 22.957 180.861 22.887 180.861 22.737C180.861 22.587 180.821 22.537 180.751 22.537ZM171.511 13.327C170.711 14.067 169.631 14.427 168.551 14.307C168.021 14.307 167.651 14.297 167.431 14.267V9.067C167.361 8.387 167.491 7.707 167.791 7.097C168.211 6.707 168.781 6.527 169.341 6.607C171.341 6.607 172.341 7.887 172.341 10.437C172.411 11.467 172.121 12.487 171.511 13.327Z" fill="white"/>
<path d="M196.841 17.807C196.721 17.787 196.651 17.817 196.621 17.917C196.111 19.297 195.291 20.547 194.221 21.567C193.291 22.347 192.101 22.757 190.881 22.727C189.531 22.767 188.221 22.317 187.181 21.467C186.161 20.597 185.401 19.457 184.981 18.177C184.511 16.807 184.271 15.367 184.281 13.917C184.191 11.977 184.731 10.067 185.811 8.46698C186.771 7.10698 188.351 6.31698 190.021 6.36698C191.311 6.33698 192.581 6.74698 193.611 7.52698C194.771 8.47698 195.681 9.68698 196.261 11.067C196.281 11.167 196.361 11.197 196.491 11.177C196.621 11.157 196.691 11.107 196.691 11.037L196.441 7.31698C196.451 7.18698 196.421 7.05698 196.371 6.93698C196.291 6.82698 196.171 6.74698 196.041 6.70698C195.211 6.34698 194.351 6.09698 193.461 5.94698C192.501 5.76698 191.531 5.66698 190.551 5.65698C188.791 5.63698 187.051 6.02698 185.481 6.80698C184.011 7.52698 182.771 8.61698 181.871 9.98698C181.001 11.317 180.541 12.877 180.551 14.467C180.561 15.907 180.901 17.327 181.541 18.617C182.251 20.047 183.361 21.237 184.741 22.047C186.451 23.027 188.401 23.497 190.371 23.417C192.341 23.427 194.291 23.097 196.151 22.437C196.461 22.377 196.681 22.097 196.651 21.787L197.011 17.957C197.021 17.877 196.961 17.827 196.841 17.807Z" fill="white"/>
<path d="M214.031 18.057C213.911 18.057 213.841 18.097 213.811 18.167C213.381 19.357 212.631 20.407 211.641 21.197C210.781 21.947 209.681 22.367 208.531 22.387H207.701C207.231 22.407 206.761 22.347 206.311 22.187C206.011 22.057 205.781 21.787 205.701 21.467C205.571 20.957 205.521 20.427 205.541 19.897V14.767C206.981 14.777 208.411 14.867 209.841 15.037C210.711 15.167 211.201 15.237 211.321 15.237C211.391 15.237 211.451 15.137 211.481 14.947C211.521 14.747 211.541 14.537 211.531 14.337C211.531 14.157 211.511 13.977 211.481 13.797C211.441 13.627 211.391 13.547 211.321 13.547C211.201 13.547 210.711 13.597 209.841 13.707C208.971 13.817 207.541 13.897 205.541 13.937V9.02699C205.521 8.49699 205.571 7.95699 205.701 7.43699C205.791 7.12699 206.011 6.86699 206.311 6.73699C206.761 6.57699 207.231 6.51699 207.701 6.53699H208.211C209.241 6.54699 210.221 6.93699 210.991 7.61699C211.841 8.31699 212.461 9.26699 212.761 10.327C212.781 10.397 212.861 10.437 212.991 10.437C213.121 10.437 213.191 10.397 213.191 10.327C213.191 9.62699 213.181 9.05699 213.151 8.59699L213.111 6.35699C213.111 6.16699 212.991 6.06699 212.751 6.06699H199.981C199.931 6.06699 199.911 6.13699 199.911 6.28699C199.911 6.43699 199.931 6.50699 199.981 6.50699C200.521 6.47699 201.051 6.54699 201.571 6.70699C201.891 6.82699 202.141 7.08699 202.261 7.40699C202.401 7.92699 202.461 8.45699 202.441 8.99699V20.047C202.461 20.587 202.401 21.127 202.261 21.657C202.161 21.987 201.901 22.247 201.571 22.357C201.051 22.497 200.521 22.557 199.981 22.537C199.931 22.537 199.911 22.607 199.911 22.757C199.911 22.907 199.931 22.977 199.981 22.977H213.411C213.571 22.997 213.721 22.947 213.841 22.847C213.921 22.727 213.961 22.577 213.951 22.427C213.951 21.317 214.031 19.897 214.201 18.167C214.211 18.087 214.151 18.057 214.031 18.057Z" fill="white"/>
<path d="M99.021 22.527C98.491 22.547 97.951 22.427 97.481 22.177C96.991 21.847 96.581 21.407 96.291 20.897C95.731 19.967 95.231 18.997 94.791 18.007L88.981 5.517C88.971 5.427 88.891 5.367 88.801 5.377C88.701 5.377 88.621 5.437 88.581 5.517L83.241 18.187C82.861 19.157 82.401 20.097 81.871 20.987C81.571 21.497 81.131 21.917 80.611 22.197C80.041 22.437 79.431 22.547 78.811 22.527C78.691 22.527 78.631 22.597 78.631 22.747C78.631 22.887 78.691 22.967 78.811 22.967C79.271 22.967 79.861 22.947 80.581 22.897C81.401 22.847 82.111 22.827 82.711 22.827C83.291 22.827 83.911 22.847 84.591 22.897C85.221 22.947 85.701 22.967 86.041 22.967C86.161 22.967 86.221 22.897 86.221 22.747C86.221 22.607 86.161 22.527 86.041 22.527C85.371 22.567 84.701 22.437 84.111 22.127C83.681 21.837 83.441 21.347 83.481 20.827C83.551 20.027 83.751 19.247 84.091 18.517L84.901 16.557H90.711L92.291 19.927C92.571 20.457 92.761 21.037 92.831 21.627C92.851 21.907 92.701 22.177 92.451 22.317C92.061 22.487 91.631 22.567 91.201 22.537C91.101 22.537 91.061 22.607 91.061 22.757C91.061 22.897 91.111 22.977 91.201 22.977C91.511 22.977 92.051 22.957 92.831 22.907C93.651 22.857 94.251 22.837 94.631 22.837C95.061 22.837 95.791 22.857 96.801 22.907C97.811 22.957 98.561 22.977 99.041 22.977C99.141 22.977 99.181 22.907 99.181 22.757C99.181 22.607 99.111 22.527 99.021 22.527ZM85.231 15.707L87.601 9.967L90.281 15.707H85.231Z" fill="white"/>
</svg>
