<svg width="256" height="27" viewBox="0 0 256 27" fill="none" xmlns="http://www.w3.org/2000/svg">
<path d="M253.5 10.358C253.28 10.038 253.08 9.69799 252.92 9.33799C253.22 9.21799 253.41 8.92798 253.4 8.60798C253.41 8.43798 253.33 8.268 253.19 8.168C253 8.058 252.77 8.008 252.55 8.028C252.49 8.028 252.38 8.03799 252.22 8.04799C252.04 8.05799 251.91 8.06799 251.84 8.06799L251.23 8.058C251.22 8.058 251.22 8.07798 251.22 8.10798C251.22 8.13798 251.22 8.15799 251.23 8.15799C251.37 8.15799 251.46 8.17799 251.5 8.22799C251.55 8.32799 251.57 8.42799 251.56 8.53799V10.398C251.56 10.488 251.56 10.568 251.54 10.658C251.53 10.708 251.5 10.738 251.45 10.758C251.38 10.778 251.3 10.788 251.23 10.788C251.22 10.788 251.22 10.808 251.22 10.838C251.22 10.868 251.22 10.888 251.23 10.888L251.84 10.878L252.47 10.888C252.48 10.888 252.49 10.868 252.49 10.838C252.49 10.808 252.48 10.788 252.47 10.788C252.38 10.788 252.3 10.788 252.21 10.758C252.16 10.748 252.12 10.708 252.11 10.658C252.09 10.578 252.08 10.488 252.08 10.398V9.56799C252.2 9.56799 252.33 9.55799 252.45 9.54799C252.67 10.008 252.85 10.318 252.98 10.548C253.11 10.778 253.2 10.888 253.25 10.888H254.04C254.05 10.888 254.06 10.878 254.06 10.848C254.06 10.818 254.05 10.818 254.04 10.818C253.84 10.708 253.64 10.558 253.5 10.358ZM252.72 9.23799C252.6 9.33799 252.44 9.38799 252.28 9.36799C252.22 9.36799 252.15 9.36798 252.09 9.35798V8.53799C252.09 8.43799 252.1 8.348 252.12 8.248C252.13 8.198 252.17 8.158 252.21 8.138C252.28 8.118 252.34 8.11799 252.41 8.11799C252.7 8.11799 252.84 8.33799 252.84 8.76799C252.87 8.94799 252.82 9.10799 252.72 9.23799Z" fill="black"/>
<path d="M254.81 8.12801C254.6 7.76801 254.3 7.47802 253.94 7.27802C253.54 7.06802 253.09 6.958 252.64 6.968C252.15 6.968 251.67 7.07801 251.23 7.28801C250.8 7.49801 250.44 7.81801 250.18 8.20801C249.92 8.61801 249.78 9.088 249.79 9.578C249.78 10.038 249.91 10.488 250.16 10.868C250.4 11.238 250.73 11.528 251.12 11.728C251.5 11.928 251.93 12.028 252.36 12.028C252.85 12.038 253.32 11.908 253.75 11.668C254.16 11.438 254.51 11.098 254.75 10.688C255 10.278 255.12 9.808 255.12 9.328C255.13 8.908 255.02 8.49801 254.81 8.12801ZM254.11 11.198C253.75 11.608 253.21 11.828 252.66 11.798C252.24 11.798 251.84 11.698 251.48 11.488C251.11 11.278 250.81 10.978 250.61 10.608C250.39 10.208 250.27 9.758 250.28 9.298C250.27 8.928 250.35 8.56801 250.5 8.22801C250.65 7.90801 250.88 7.64801 251.18 7.45801C251.52 7.25801 251.92 7.15802 252.32 7.16802C252.74 7.15802 253.15 7.268 253.51 7.468C253.86 7.668 254.14 7.95801 254.32 8.31801C254.52 8.71801 254.62 9.158 254.61 9.608C254.65 10.178 254.47 10.748 254.11 11.198Z" fill="black"/>
<path d="M31.08 25.688C30.69 25.568 30.37 25.278 30.23 24.898C30.04 24.298 29.93 23.668 29.92 23.028L28.97 4.06803C28.83 3.18803 29.13 2.29802 29.78 1.67802C30.63 1.11802 31.65 0.868009 32.66 0.948009C32.72 0.948009 32.74 0.868009 32.74 0.698009C32.74 0.528009 32.71 0.448009 32.66 0.448009C31.94 0.448009 31.4 0.458018 31.04 0.488018L28.8 0.528026C28.36 0.528026 27.98 0.518018 27.68 0.488018C27.38 0.458018 27.13 0.448009 26.93 0.448009C26.68 0.438009 26.43 0.51802 26.22 0.67802C25.98 0.89802 25.79 1.17802 25.68 1.48802L17.42 20.408L8.28998 2.60801C7.99998 1.98801 7.65 1.39803 7.25 0.848033C7.04 0.588033 6.71 0.448019 6.38 0.458019C6.1 0.458019 5.82999 0.468027 5.54999 0.498027L3.60001 0.538005C3.02001 0.538005 2.55 0.528027 2.19 0.498027L0.410004 0.458019C0.330004 0.458019 0.279999 0.538019 0.279999 0.708019C0.279999 0.878019 0.320004 0.958019 0.410004 0.958019C1.14 0.948019 1.85999 1.16801 2.45999 1.57801C3.13999 2.09801 3.71001 2.76803 4.10001 3.52803L3.72998 21.368C3.77998 22.568 3.44 23.748 2.75 24.728C2.11 25.508 1.12999 25.948 0.109985 25.888C0.0299854 25.888 -0.0200195 25.968 -0.0200195 26.138C-0.0200195 26.308 0.0199853 26.388 0.109985 26.388C0.859985 26.388 1.44001 26.378 1.85001 26.348L4.29999 26.308L6.57999 26.348C6.99999 26.378 7.57998 26.388 8.31998 26.388C8.39998 26.388 8.44 26.308 8.44 26.138C8.44 25.968 8.39998 25.888 8.31998 25.888C7.28998 25.958 6.28998 25.528 5.63998 24.728C4.97998 23.738 4.67998 22.548 4.78998 21.368L5.16 5.59802L15.53 26.098C15.63 26.198 15.76 26.258 15.9 26.268C16.03 26.288 16.17 26.218 16.23 26.098L25.07 5.43801L25.9 23.028L25.94 23.738C26.03 24.388 25.8 25.038 25.32 25.478C24.55 25.828 23.71 25.968 22.87 25.898C22.81 25.898 22.79 25.978 22.79 26.148C22.79 26.318 22.82 26.398 22.87 26.398C23.78 26.398 24.49 26.388 24.98 26.358L27.88 26.318L30.87 26.358C31.42 26.388 32.16 26.398 33.07 26.398C33.12 26.398 33.15 26.318 33.15 26.148C33.15 25.978 33.12 25.898 33.07 25.898C32.43 25.928 31.74 25.858 31.08 25.688Z" fill="black"/>
<path d="M51.87 20.748C51.73 20.748 51.65 20.788 51.62 20.878C51.12 22.248 50.26 23.448 49.13 24.368C48.14 25.228 46.87 25.708 45.56 25.738H44.61C44.07 25.768 43.52 25.688 43.01 25.508C42.66 25.358 42.4 25.048 42.3 24.678C42.15 24.088 42.09 23.488 42.11 22.878V16.988C43.76 16.998 45.41 17.108 47.05 17.298C48.05 17.448 48.61 17.528 48.75 17.528C48.83 17.528 48.9 17.418 48.94 17.198C48.98 16.968 49 16.728 49 16.488C49 16.278 48.98 16.068 48.94 15.868C48.9 15.678 48.84 15.578 48.75 15.578C48.61 15.578 48.04 15.638 47.05 15.768C46.06 15.888 44.41 15.978 42.11 16.038V10.398C42.09 9.78801 42.15 9.16801 42.3 8.56801C42.4 8.20801 42.66 7.90801 43.01 7.75801C43.52 7.57801 44.07 7.49802 44.61 7.52802H45.19C46.37 7.54802 47.51 7.98801 48.39 8.76801C49.37 9.57801 50.08 10.658 50.42 11.878C50.45 11.958 50.54 12.008 50.69 12.008C50.84 12.008 50.92 11.968 50.92 11.878C50.92 11.078 50.91 10.418 50.88 9.88802L50.84 7.31801C50.84 7.09801 50.7 6.98801 50.43 6.98801H35.73C35.67 6.98801 35.65 7.06801 35.65 7.23801C35.65 7.40801 35.68 7.48801 35.73 7.48801C36.35 7.45801 36.96 7.538 37.56 7.718C37.93 7.858 38.22 8.14802 38.35 8.52802C38.51 9.11802 38.58 9.738 38.56 10.358V23.058C38.59 23.678 38.52 24.308 38.35 24.908C38.23 25.288 37.94 25.588 37.56 25.718C36.97 25.888 36.35 25.958 35.73 25.928C35.67 25.928 35.65 26.008 35.65 26.178C35.65 26.348 35.68 26.428 35.73 26.428H51.17C51.35 26.448 51.53 26.398 51.67 26.278C51.77 26.138 51.81 25.968 51.8 25.798C51.8 24.528 51.9 22.888 52.09 20.898C52.07 20.788 52.01 20.748 51.87 20.748Z" fill="black"/>
<path d="M70.95 8.13801C69.07 7.26801 67.01 6.83801 64.93 6.89801C64.38 6.89801 63.55 6.92801 62.44 6.97801C61.56 7.05801 60.7 7.098 59.87 7.108C59.26 7.108 58.4 7.07801 57.3 7.02801L55.31 6.988C55.26 6.988 55.23 7.068 55.23 7.238C55.23 7.408 55.26 7.488 55.31 7.488C55.93 7.458 56.54 7.538 57.14 7.718C57.51 7.858 57.8 8.14801 57.93 8.52801C58.09 9.11801 58.16 9.738 58.14 10.358V23.058C58.17 23.678 58.1 24.308 57.93 24.908C57.81 25.288 57.52 25.588 57.14 25.718C56.53 25.888 55.9 25.958 55.27 25.928C55.21 25.928 55.19 26.008 55.19 26.178C55.19 26.348 55.22 26.428 55.27 26.428C56.13 26.428 56.8 26.418 57.3 26.388L59.87 26.348C60.51 26.348 61.07 26.358 61.57 26.388C62.07 26.418 62.48 26.438 62.81 26.468C63.78 26.548 64.65 26.588 65.42 26.598C67.34 26.638 69.25 26.188 70.96 25.308C72.53 24.498 73.85 23.258 74.76 21.738C75.68 20.178 76.16 18.398 76.13 16.588C76.16 14.838 75.7 13.118 74.8 11.608C73.89 10.078 72.55 8.87801 70.95 8.13801ZM70.12 23.508C68.84 25.028 66.92 25.868 64.93 25.768C64 25.888 63.07 25.628 62.34 25.038C61.84 24.318 61.61 23.438 61.7 22.568V10.408C61.61 9.618 61.85 8.83801 62.36 8.22801C63.01 7.76801 63.81 7.548 64.6 7.628C66.78 7.488 68.88 8.49801 70.14 10.288C71.44 12.288 72.08 14.628 71.99 17.008C71.99 19.838 71.37 21.998 70.12 23.508Z" fill="black"/>
<path d="M86.02 8.56801C86.15 8.17801 86.45 7.868 86.83 7.718C87.41 7.528 88.02 7.438 88.63 7.468C88.68 7.468 88.71 7.388 88.71 7.218C88.71 7.048 88.68 6.968 88.63 6.968L86.72 7.00801C85.61 7.06801 84.69 7.09801 83.94 7.08801C83.27 7.08801 82.42 7.05801 81.37 7.00801L79.34 6.968C79.29 6.968 79.26 7.048 79.26 7.218C79.26 7.388 79.29 7.468 79.34 7.468C79.96 7.438 80.59 7.51801 81.19 7.69801C81.57 7.82801 81.87 8.12801 82 8.50801C82.16 9.09801 82.23 9.71801 82.21 10.338V23.038C82.24 23.658 82.17 24.288 82 24.888C81.88 25.268 81.59 25.568 81.21 25.698C80.6 25.868 79.97 25.938 79.34 25.908C79.29 25.908 79.26 25.988 79.26 26.158C79.26 26.328 79.29 26.408 79.34 26.408C80.2 26.408 80.87 26.398 81.37 26.368L83.94 26.328L86.68 26.368C87.15 26.398 87.8 26.408 88.63 26.408C88.68 26.408 88.71 26.328 88.71 26.158C88.71 25.988 88.68 25.908 88.63 25.908C88.01 25.938 87.4 25.868 86.8 25.698C86.42 25.568 86.13 25.268 86.01 24.888C85.85 24.288 85.78 23.668 85.8 23.038V10.418C85.78 9.78801 85.85 9.16801 86.02 8.56801Z" fill="black"/>
<path d="M129.81 13.988C128.99 13.348 127.88 12.588 126.47 11.708C125.17 10.908 124.14 10.218 123.38 9.63802C122.63 9.06802 121.98 8.37801 121.47 7.58801C120.95 6.77801 120.68 5.82801 120.7 4.86801C120.64 3.77801 121.04 2.708 121.8 1.918C122.6 1.168 123.67 0.788013 124.77 0.838013C126.43 0.738013 128.01 1.518 128.94 2.888C129.89 4.308 130.64 5.84801 131.16 7.47801C131.19 7.58801 131.28 7.618 131.43 7.578C131.58 7.538 131.66 7.47802 131.66 7.38802L131.54 1.74802C131.55 1.57802 131.5 1.41801 131.41 1.26801C131.28 1.10801 131.11 1.00801 130.91 0.958008C130.15 0.648008 129.36 0.418015 128.54 0.278015C127.61 0.0980151 126.67 0.00799561 125.72 0.00799561C124.34 0.00799561 122.97 0.248007 121.67 0.738007C120.44 1.17801 119.36 1.94801 118.54 2.95801C117.72 3.99801 117.3 5.288 117.34 6.608C117.32 7.678 117.59 8.738 118.13 9.658C118.63 10.498 119.28 11.248 120.04 11.858C120.79 12.458 121.82 13.178 123.15 14.038C124.5 14.928 125.58 15.668 126.37 16.278C127.17 16.908 127.85 17.678 128.36 18.558C128.91 19.528 129.19 20.638 129.17 21.758C129.29 22.968 128.85 24.168 127.97 25.018C127.12 25.688 126.06 26.028 124.98 25.998C123.21 26.028 121.54 25.208 120.48 23.798C119.16 22.078 118.11 20.178 117.35 18.158C117.32 18.048 117.24 17.998 117.1 18.018C116.96 18.038 116.89 18.098 116.89 18.208V18.248L117.14 24.558C117.14 24.868 117.3 25.168 117.55 25.348C118.41 25.888 119.36 26.268 120.35 26.468C121.52 26.768 122.73 26.918 123.94 26.928C125.52 26.958 127.08 26.638 128.52 25.998C129.78 25.448 130.86 24.548 131.63 23.408C132.37 22.288 132.75 20.968 132.73 19.628C132.76 18.488 132.46 17.358 131.88 16.368C131.34 15.428 130.64 14.638 129.81 13.988Z" fill="black"/>
<path d="M152.86 7.908C151.31 6.938 149.5 6.43801 147.67 6.47801C145.85 6.48801 144.05 6.88801 142.4 7.67801C140.71 8.45801 139.26 9.67801 138.19 11.208C137.08 12.828 136.5 14.758 136.55 16.728C136.53 18.498 136.97 20.238 137.82 21.798C138.65 23.338 139.89 24.618 141.39 25.508C142.98 26.448 144.79 26.928 146.64 26.898C148.57 26.918 150.47 26.418 152.14 25.468C153.77 24.558 155.14 23.228 156.1 21.628C157.06 20.068 157.56 18.268 157.55 16.438C157.55 14.758 157.13 13.098 156.33 11.628C155.52 10.108 154.32 8.818 152.86 7.908ZM151.85 23.688C150.94 25.128 149.34 25.988 147.64 25.968C146.31 25.978 145.02 25.488 144.03 24.598C142.9 23.578 142.06 22.278 141.56 20.838C140.94 19.128 140.64 17.318 140.67 15.508C140.54 13.418 141.04 11.328 142.12 9.52801C143.05 8.16801 144.62 7.37801 146.27 7.44801C147.66 7.41801 149.01 7.88801 150.09 8.77801C151.22 9.73801 152.08 10.978 152.58 12.368C153.18 13.968 153.47 15.658 153.45 17.368C153.57 19.598 153.01 21.798 151.85 23.688Z" fill="black"/>
<path d="M182.9 6.968L181.03 7.00801C180.09 7.06801 179.33 7.09801 178.75 7.08801C178.17 7.08801 177.35 7.05801 176.3 7.00801L174.43 6.968C174.35 6.968 174.3 7.048 174.3 7.218C174.3 7.388 174.34 7.468 174.43 7.468C174.95 7.438 175.48 7.518 175.96 7.718C176.3 7.888 176.54 8.19801 176.62 8.56801C176.75 9.17801 176.81 9.79801 176.79 10.418V22.118C174.99 24.438 172.97 25.598 170.73 25.598C169.44 25.658 168.19 25.148 167.31 24.208C166.47 23.278 166.04 21.758 166.04 19.628V10.418C166.02 9.79801 166.08 9.17801 166.23 8.56801C166.33 8.19801 166.59 7.888 166.94 7.718C167.45 7.528 168 7.438 168.54 7.468C168.59 7.468 168.62 7.388 168.62 7.218C168.62 7.048 168.59 6.968 168.54 6.968L166.84 7.00801C165.79 7.06801 164.94 7.09801 164.31 7.08801C163.81 7.08801 163.09 7.05801 162.15 7.00801L160.53 6.968C160.47 6.968 160.45 7.048 160.45 7.218C160.45 7.388 160.48 7.468 160.53 7.468C160.96 7.438 161.4 7.51801 161.8 7.69801C162.08 7.87801 162.28 8.17801 162.34 8.50801C162.46 9.10801 162.5 9.71801 162.48 10.338V20.758C162.35 22.508 163.07 24.228 164.41 25.368C165.79 26.428 167.5 26.968 169.24 26.908C170.62 26.918 171.98 26.618 173.22 26.038C174.58 25.368 175.79 24.438 176.79 23.298V25.618C176.79 25.978 176.84 26.198 176.94 26.278C177.14 26.388 177.36 26.428 177.58 26.408L180.11 26.368L182.81 26.408C182.89 26.408 182.93 26.328 182.93 26.158C182.93 25.988 182.89 25.908 182.81 25.908C182.29 25.938 181.77 25.868 181.27 25.698C180.93 25.548 180.68 25.248 180.59 24.888C180.44 24.288 180.38 23.658 180.4 23.038V10.338C180.38 9.72801 180.44 9.10801 180.59 8.50801C180.69 8.14801 180.95 7.84801 181.3 7.69801C181.81 7.51801 182.36 7.438 182.9 7.468C182.98 7.468 183.02 7.388 183.02 7.218C183.02 7.048 182.99 6.968 182.9 6.968Z" fill="black"/>
<path d="M207.72 25.898C206.72 25.888 205.75 25.578 204.94 25.008C203.81 24.168 202.82 23.158 201.99 22.018C200.59 20.138 199.3 18.178 198.13 16.148C199.22 15.648 200.17 14.878 200.87 13.908C201.52 13.028 201.87 11.968 201.87 10.878C201.92 9.668 201.3 8.52801 200.27 7.88801C198.84 7.10801 197.22 6.74801 195.6 6.84801C194.85 6.84801 194.02 6.888 193.11 6.968C192.78 6.998 192.39 7.028 191.95 7.048C191.51 7.068 191.02 7.08801 190.5 7.08801C189.86 7.08801 189.02 7.05801 187.97 7.00801L185.94 6.968C185.89 6.968 185.86 7.048 185.86 7.218C185.86 7.388 185.89 7.468 185.94 7.468C186.54 7.438 187.15 7.51801 187.72 7.69801C188.09 7.83801 188.38 8.12801 188.51 8.50801C188.67 9.09801 188.74 9.71801 188.72 10.338V23.038C188.75 23.658 188.68 24.288 188.51 24.888C188.39 25.268 188.1 25.568 187.72 25.698C187.13 25.868 186.51 25.938 185.89 25.908C185.83 25.908 185.81 25.988 185.81 26.158C185.81 26.328 185.84 26.408 185.89 26.408C186.75 26.408 187.42 26.398 187.92 26.368L190.49 26.328L193.23 26.368C193.7 26.398 194.34 26.408 195.14 26.408C195.2 26.408 195.22 26.328 195.22 26.158C195.22 25.988 195.19 25.908 195.14 25.908C194.53 25.938 193.92 25.868 193.34 25.698C192.97 25.568 192.69 25.268 192.59 24.888C192.44 24.288 192.38 23.658 192.4 23.038V17.148C192.73 17.178 193.07 17.198 193.4 17.188C194 17.188 194.59 17.148 195.18 17.058C196.39 19.408 197.72 21.688 199.18 23.888C200.33 25.558 201.12 26.398 201.57 26.398H207.71C207.79 26.398 207.83 26.318 207.83 26.148C207.83 25.978 207.8 25.898 207.72 25.898ZM197.09 15.308C196.17 16.158 194.93 16.568 193.69 16.428C193.08 16.428 192.65 16.418 192.4 16.388V10.408C192.32 9.628 192.47 8.84801 192.81 8.14801C193.29 7.69801 193.95 7.49801 194.59 7.58801C196.88 7.58801 198.03 9.05801 198.03 11.988C198.14 13.178 197.8 14.358 197.09 15.308Z" fill="black"/>
<path d="M226.21 20.458C226.07 20.428 225.99 20.468 225.96 20.578C225.37 22.168 224.43 23.598 223.2 24.768C222.13 25.668 220.76 26.138 219.36 26.098C217.81 26.148 216.3 25.628 215.11 24.648C213.94 23.648 213.06 22.338 212.58 20.878C212.04 19.298 211.76 17.648 211.77 15.978C211.67 13.758 212.29 11.558 213.53 9.70801C214.63 8.13801 216.45 7.23801 218.36 7.29801C219.85 7.26801 221.3 7.73801 222.49 8.62801C223.82 9.71801 224.87 11.108 225.54 12.698C225.57 12.808 225.66 12.848 225.81 12.818C225.96 12.788 226.04 12.738 226.04 12.648L225.75 8.37801C225.76 8.22801 225.73 8.07801 225.67 7.93801C225.58 7.80801 225.44 7.71802 225.3 7.66802C224.35 7.25802 223.35 6.96801 222.33 6.79801C221.23 6.58801 220.11 6.47801 218.99 6.46801C216.97 6.43801 214.97 6.89801 213.16 7.79801C211.47 8.61801 210.04 9.87802 209.01 11.448C208.01 12.978 207.48 14.768 207.5 16.598C207.51 18.258 207.9 19.888 208.64 21.368C209.46 23.008 210.73 24.378 212.31 25.308C214.28 26.428 216.52 26.978 218.78 26.888C221.04 26.898 223.29 26.518 225.42 25.768C225.78 25.708 226.03 25.378 226 25.018L226.41 20.618C226.42 20.538 226.35 20.488 226.21 20.458Z" fill="black"/>
<path d="M245.96 20.748C245.82 20.748 245.74 20.788 245.71 20.878C245.22 22.248 244.35 23.448 243.22 24.368C242.23 25.228 240.96 25.708 239.65 25.738H238.7C238.16 25.768 237.61 25.688 237.1 25.508C236.75 25.358 236.49 25.048 236.39 24.678C236.24 24.088 236.18 23.488 236.2 22.878V16.988C237.85 16.998 239.5 17.108 241.14 17.298C242.14 17.448 242.7 17.528 242.84 17.528C242.92 17.528 242.99 17.418 243.03 17.198C243.07 16.968 243.09 16.728 243.09 16.488C243.09 16.278 243.07 16.068 243.03 15.868C242.99 15.678 242.93 15.578 242.84 15.578C242.7 15.578 242.14 15.638 241.14 15.768C240.14 15.888 238.5 15.978 236.2 16.038V10.398C236.18 9.78801 236.24 9.16801 236.39 8.56801C236.49 8.20801 236.75 7.90801 237.1 7.75801C237.61 7.57801 238.16 7.49802 238.7 7.52802H239.28C240.46 7.54802 241.6 7.98801 242.48 8.76801C243.46 9.57801 244.17 10.658 244.51 11.878C244.54 11.958 244.63 12.008 244.78 12.008C244.93 12.008 245.01 11.968 245.01 11.878C245.01 11.078 245 10.418 244.97 9.88802L244.93 7.31801C244.93 7.09801 244.79 6.98801 244.52 6.98801H229.83C229.77 6.98801 229.75 7.06801 229.75 7.23801C229.75 7.40801 229.78 7.48801 229.83 7.48801C230.45 7.45801 231.06 7.538 231.66 7.718C232.03 7.858 232.32 8.14802 232.45 8.52802C232.61 9.11802 232.68 9.738 232.66 10.358V23.058C232.69 23.678 232.62 24.308 232.45 24.908C232.33 25.288 232.04 25.588 231.66 25.718C231.07 25.888 230.45 25.958 229.83 25.928C229.77 25.928 229.75 26.008 229.75 26.178C229.75 26.348 229.78 26.428 229.83 26.428H245.27C245.45 26.448 245.63 26.398 245.77 26.278C245.87 26.138 245.91 25.968 245.89 25.798C245.89 24.528 245.99 22.888 246.18 20.898C246.17 20.788 246.1 20.748 245.96 20.748Z" fill="black"/>
<path d="M113.79 25.898C113.18 25.918 112.57 25.788 112.03 25.498C111.46 25.118 110.99 24.618 110.66 24.028C110.02 22.958 109.44 21.848 108.94 20.708L102.26 6.34801C102.24 6.24801 102.15 6.17801 102.05 6.17801C101.94 6.17801 101.84 6.23801 101.8 6.34801L95.66 20.908C95.23 22.018 94.7 23.098 94.08 24.128C93.73 24.718 93.23 25.198 92.63 25.518C91.97 25.788 91.27 25.918 90.56 25.888C90.42 25.888 90.35 25.968 90.35 26.138C90.35 26.308 90.42 26.388 90.56 26.388C91.09 26.388 91.76 26.358 92.59 26.308C93.53 26.248 94.35 26.228 95.04 26.228C95.71 26.228 96.43 26.258 97.2 26.308C97.92 26.368 98.47 26.388 98.86 26.388C99 26.388 99.07 26.308 99.07 26.138C99.07 25.968 99 25.888 98.86 25.888C98.09 25.938 97.32 25.778 96.64 25.428C96.14 25.098 95.86 24.528 95.91 23.938C95.99 23.018 96.23 22.118 96.62 21.288L97.55 19.028H104.22L106.03 22.908C106.35 23.518 106.57 24.178 106.65 24.858C106.67 25.188 106.5 25.488 106.21 25.648C105.76 25.848 105.27 25.928 104.78 25.898C104.67 25.898 104.62 25.978 104.62 26.148C104.62 26.318 104.67 26.398 104.78 26.398C105.14 26.398 105.76 26.368 106.65 26.318C107.59 26.258 108.28 26.238 108.72 26.238C109.22 26.238 110.05 26.268 111.21 26.318C112.37 26.378 113.23 26.398 113.78 26.398C113.89 26.398 113.95 26.318 113.95 26.148C113.95 25.978 113.9 25.898 113.79 25.898ZM97.95 18.048L100.68 11.448L103.76 18.048H97.95Z" fill="black"/>
</svg>
