<svg width="174" height="47" viewBox="0 0 174 47" fill="none" xmlns="http://www.w3.org/2000/svg">
<g clip-path="url(#clip0)">
<path d="M17.52 0.000976562C18.33 0.110977 19.14 0.19082 19.94 0.34082C24.1 0.93082 27.77 3.40103 29.87 7.05103C30.93 8.70103 30.45 10.9009 28.8 11.9609C28.43 12.2009 28.02 12.3609 27.59 12.4509C26.15 12.7909 24.65 12.1508 23.9 10.8708C22.12 7.74085 19.32 6.56083 15.88 6.60083C13.89 6.58083 11.96 7.30087 10.48 8.64087C7.46001 11.3709 7.82 16.4808 12.16 18.1008C13.38 18.4908 14.63 18.811 15.89 19.041C18.2 19.591 20.55 20.0009 22.82 20.6909C25.69 21.4809 28.19 23.271 29.86 25.741C32.45 29.471 32.71 34.3508 30.51 38.3208C28.65 41.9708 25.21 44.5608 21.19 45.3408C16.83 46.4608 12.22 46.091 8.09 44.291C4.51 42.771 1.7 39.871 0.279999 36.251C0.159999 35.971 0.0900208 35.6609 -0.00997925 35.3708V34.3508C0.0200208 34.3008 0.0399976 34.2509 0.0599976 34.2009C0.379998 32.6009 1.72 31.411 3.34 31.281C4.96 31.091 6.5 32.0408 7.06 33.5708C7.91 35.5908 9.47001 37.2209 11.45 38.1709C13.41 39.0609 15.57 39.4009 17.71 39.1409C19.11 39.0509 20.48 38.6209 21.69 37.9009C24.3 36.3209 25.14 32.911 23.55 30.301C23.52 30.251 23.49 30.2009 23.45 30.1509C22.45 28.7309 20.96 27.7409 19.26 27.3809C17.31 26.8909 15.34 26.4908 13.37 26.1008C11.18 25.7308 9.06 25.0109 7.09 23.9709C1.34 20.7309 -0.69998 13.4509 2.52002 7.69092C4.57002 3.96092 8.15 1.31091 12.31 0.430908C13.14 0.230908 14.01 0.140967 14.85 -0.0090332L17.52 0.000976562Z" fill="#111111"/>
<path d="M155.91 46.5909C155.57 46.4909 155.24 46.3811 154.92 46.2511C153.46 45.6511 152.52 44.2009 152.57 42.6209C152.56 40.1709 152.57 37.7211 152.57 35.2711C152.57 34.4111 152.31 34.171 151.45 34.171C148.97 34.181 146.49 34.191 144.01 34.191C141.83 34.171 140.07 32.381 140.1 30.201C140.12 28.061 141.84 26.3311 143.97 26.2911C146.45 26.2711 148.93 26.2711 151.41 26.2711C152.32 26.2711 152.57 26.0209 152.57 25.1109C152.57 22.5309 152.57 19.9509 152.57 17.3709C152.55 15.1809 154.31 13.3909 156.5 13.3809C158.05 13.3709 159.47 14.261 160.13 15.671C160.37 16.231 160.49 16.831 160.49 17.431C160.53 19.991 160.51 22.5609 160.51 25.1209C160.51 25.9509 160.76 26.201 161.6 26.201C164.13 26.191 166.67 26.181 169.21 26.171C171.26 26.031 173.07 27.4911 173.36 29.5211C173.38 29.5711 173.4 29.631 173.42 29.681V30.6209C173.39 30.6809 173.36 30.7509 173.34 30.8109C173.02 32.7409 171.33 34.1309 169.38 34.0909L161.6 34.1209C160.77 34.1209 160.5 34.381 160.5 35.211C160.5 37.701 160.51 40.201 160.5 42.691C160.51 43.841 160 44.931 159.11 45.671C158.52 46.131 157.83 46.4609 157.1 46.6109L155.91 46.5909Z" fill="#111111"/>
<path d="M93.17 0.000976562C93.89 0.160977 94.56 0.490947 95.12 0.970947C95.87 1.66095 96.3 2.63088 96.29 3.65088C96.29 16.2109 96.29 28.7808 96.29 41.3408C96.28 43.3608 94.64 44.991 92.62 44.981C90.88 44.971 89.39 43.741 89.05 42.041C89.01 41.761 88.99 41.4809 89 41.1909C89 28.7109 89 16.231 89 3.76099C88.92 1.97099 90.17 0.390801 91.93 0.0708008C91.98 0.0508008 92.03 0.0309668 92.07 -0.0090332L93.17 0.000976562Z" fill="#111111"/>
<path d="M49.22 0.000976562C50.93 0.520977 51.9 2.32101 51.38 4.03101C51.22 4.56101 50.93 5.0309 50.54 5.4209C49.7 6.2809 48.76 7.0308 47.85 7.8208C47.01 8.5508 46.15 9.28097 45.3 9.99097C44.71 10.611 43.93 11.0109 43.08 11.1509C42.07 11.3009 41.07 10.8309 40.54 9.95093C39.93 9.06093 39.9 7.89095 40.47 6.97095C40.91 6.33095 41.41 5.74094 41.98 5.21094C43.26 3.93094 44.58 2.68091 45.88 1.43091C46.53 0.780908 47.33 0.290977 48.2 0.000976562H49.22Z" fill="#111111"/>
<path d="M103.14 29.8209C103.08 26.1309 104.26 22.5409 106.5 19.6109C108.84 16.5709 112.28 14.5611 116.09 14.0211C119.28 13.4611 122.56 13.871 125.52 15.191C129.45 16.881 132.43 20.2209 133.65 24.3209C135.34 29.1809 134.73 34.5409 132 38.9009C129.8 42.5109 126.12 44.9809 121.93 45.6409C118.56 46.3309 115.05 45.911 111.94 44.441C107.68 42.481 104.6 38.6211 103.65 34.0311C103.32 32.6611 103.23 31.2409 103.03 29.8409L103.14 29.8209ZM127.27 29.501C127.23 29.111 127.18 28.3509 127.07 27.5909C126.98 27.0309 126.84 26.481 126.65 25.951C125.77 22.951 123.17 20.781 120.07 20.431C116.86 19.831 113.62 21.2711 111.9 24.0411C110.96 25.5211 110.44 27.221 110.39 28.971C110.19 31.181 110.65 33.4109 111.71 35.3609C113.98 39.2909 119.02 40.6409 122.95 38.3609C124.14 37.6709 125.14 36.7011 125.85 35.5211C126.86 33.6811 127.35 31.601 127.27 29.501Z" fill="#111111"/>
<path d="M68.59 13.801C71.47 13.751 74.3 14.531 76.74 16.051C78.33 17.051 79.67 18.3909 80.67 19.9809C81.62 21.4709 81.27 23.4409 79.85 24.5009C78.43 25.6009 76.41 25.4408 75.18 24.1308C74.8 23.7108 74.52 23.2009 74.15 22.7809C72.69 21.1409 70.55 20.2909 68.36 20.4609C64.19 20.5209 60.73 23.7108 60.35 27.8708C59.98 30.1508 60.27 32.4808 61.19 34.6008C62.62 37.6808 65.8 39.5707 69.2 39.3307C71.62 39.2307 73.85 37.9909 75.2 35.9809C76.32 34.4909 78.43 34.1809 79.93 35.2909C81.37 36.3709 81.72 38.3808 80.72 39.8808C78.88 42.6408 76.08 44.6008 72.86 45.3808C67.75 46.8408 62.25 45.581 58.28 42.051C55.67 39.781 53.92 36.6709 53.34 33.2609C52.53 29.4509 53.06 25.4909 54.84 22.0309C57.07 17.5309 61.44 14.4809 66.43 13.9409C66.92 13.8709 67.42 13.8407 67.91 13.8107C68.13 13.7907 68.36 13.801 68.59 13.801Z" fill="#111111"/>
<path d="M46.1 29.8709C46.1 33.6909 46.1 37.5209 46.1 41.3409C46.14 42.9909 45.04 44.4409 43.45 44.8709C41.85 45.3309 40.15 44.6009 39.37 43.1309C39.09 42.6109 38.94 42.021 38.93 41.431C38.9 33.721 38.9 26.0208 38.91 18.3108C38.92 16.3308 40.54 14.731 42.52 14.741C44.5 14.751 46.1 16.3709 46.09 18.3509C46.11 22.2009 46.11 26.0409 46.1 29.8709Z" fill="#111111"/>
</g>
<defs>
<clipPath id="clip0">
<rect width="173.42" height="46.59" fill="white"/>
</clipPath>
</defs>
</svg>
