<svg width="218" height="29" viewBox="0 0 218 29" fill="none" xmlns="http://www.w3.org/2000/svg">
<path d="M14.4021 0.0100098V2.20996C13.4721 2.33996 12.6121 2.41984 11.7721 2.58984C5.2621 4.00984 1.14214 10.4399 2.56214 16.9399C3.98214 23.4499 10.4121 27.5699 16.9121 26.1499C22.2521 24.9799 26.1421 20.3699 26.3921 14.9099C26.4821 13.9999 27.2221 13.28 28.1421 13.23H29.6221L24.2221 7.01001L25.9421 5.51001L28.6721 8.6499C30.0121 10.1799 31.3421 11.72 32.6821 13.25C32.8921 13.46 32.9521 13.7798 32.8321 14.0598C32.7321 14.9998 31.8821 15.6798 30.9421 15.5798C30.8321 15.5698 30.7221 15.55 30.6121 15.51C30.1221 15.47 29.6221 15.46 29.1321 15.49C28.7721 15.47 28.6321 15.6 28.5921 15.97C27.7021 23.84 20.6021 29.4999 12.7321 28.6099C4.86212 27.7199 -0.797893 20.62 0.0921074 12.75C0.842107 6.12 6.07209 0.879863 12.7021 0.109863C12.8221 0.0798633 12.9321 0.05 13.0421 0L14.4021 0.0100098Z" fill="#111111"/>
<path d="M31.8021 0.0100098C32.7121 0.22001 33.6421 0.369883 34.5321 0.629883C42.1221 2.88988 46.4421 10.87 44.1821 18.46C42.6021 23.76 38.1221 27.68 32.6621 28.53C31.9421 28.64 31.2021 28.69 30.4221 28.77V26.47C34.2621 26.46 37.8621 24.61 40.1221 21.51C41.9921 19.06 42.8121 15.9599 42.3821 12.9099C41.5821 6.30991 35.5921 1.5999 28.9921 2.3999C23.3621 3.0799 18.9721 7.58998 18.4421 13.23H21.6821V15.46C21.5221 15.47 21.3521 15.5 21.1721 15.5C20.0021 15.5 18.8321 15.52 17.6521 15.49C17.3421 15.45 17.0421 15.3299 16.7921 15.1399C16.1921 14.7199 15.9121 13.98 16.0721 13.27C16.6121 6.45002 21.8821 0.959883 28.6721 0.129883C28.8121 0.0998828 28.9421 0.0700195 29.0721 0.0200195L31.8021 0.0100098Z" fill="#111111"/>
<path d="M57.8521 11.9499C57.9621 11.5999 58.0721 11.2498 58.1721 10.8898C59.6021 5.44982 64.9021 2.26979 70.7121 3.35979C71.2821 3.46979 71.8521 3.60993 72.4221 3.74993C73.4421 3.98993 74.4521 4.24994 75.5121 4.50994V9.3698L75.2421 9.43987C75.0921 9.20987 74.9721 8.9699 74.8821 8.7199C73.4521 2.7799 66.4121 3.20993 63.6321 6.24993C60.0421 10.1999 60.1721 17.1498 64.0021 20.8798C66.2021 22.8498 69.3121 23.4198 72.0721 22.3698C72.7621 22.1798 73.2021 21.5197 73.1121 20.8097C73.0421 19.8897 73.1021 18.96 73.0921 18.03C73.0621 16.3 72.4421 15.6198 70.7221 15.3998C70.2921 15.3498 69.8621 15.2599 69.4421 15.1799L69.4821 14.8998H78.2721L78.3621 15.1198C78.0521 15.3198 77.7321 15.4798 77.3921 15.6098C76.4321 15.7798 75.7721 16.6798 75.9221 17.6498C75.9521 18.7498 75.8621 19.8499 75.9521 20.9499C76.0921 21.6599 75.6421 22.3499 74.9321 22.4999C74.9021 22.5099 74.8721 22.5099 74.8421 22.5099C73.3921 22.9099 71.9421 23.3099 70.4921 23.7199C70.3421 23.7799 70.1921 23.8398 70.0521 23.9198H66.7221C66.5021 23.8398 66.2821 23.7699 66.0521 23.7099C62.6321 23.1499 59.7721 20.8097 58.5621 17.5597C58.2821 16.8697 58.0921 16.1599 57.8521 15.4599V11.9499Z" fill="#111111"/>
<path d="M217.092 23.5H209.832L209.752 23.21C209.932 23.09 210.122 22.9899 210.322 22.9199C211.672 22.6699 212.002 22.3399 212.022 20.9399C212.062 19.2199 212.032 17.5098 212.032 15.7898C212.032 12.7398 212.032 9.67988 212.032 6.62988C212.032 4.84988 211.902 4.70002 210.192 4.27002C210.022 4.23002 209.892 4.03995 209.832 3.69995H217.092V4.31982C215.312 4.24982 214.822 4.71 214.822 6.5C214.822 11.23 214.822 15.9599 214.822 20.6899C214.822 22.4699 215.252 22.8899 217.092 22.8799V23.5Z" fill="#111111"/>
<path d="M191.302 5.04982H185.492C184.632 5.04982 183.772 5.03982 182.912 5.04982C180.992 5.06982 180.342 5.61999 179.942 7.47999C179.862 7.90999 179.642 8.30987 179.312 8.60987C179.232 8.44987 179.172 8.27986 179.142 8.09986C179.192 6.82986 179.242 5.55982 179.362 4.29982C179.442 4.00982 179.662 3.78997 179.952 3.70997C184.932 3.68997 189.922 3.70998 194.902 3.71998C194.962 3.71998 195.022 3.77994 195.312 3.92994C195.092 4.48994 194.812 5.02004 194.492 5.53004C190.582 10.63 186.642 15.6998 182.722 20.7898C182.522 21.1198 182.352 21.4799 182.222 21.8399C182.602 21.9399 182.992 22.0098 183.382 22.0498C186.232 22.0698 189.092 22.0598 191.942 22.0598C193.412 22.2398 194.762 21.22 195.002 19.76C195.202 19.02 195.312 18.26 195.472 17.51L195.782 17.5C195.862 17.78 195.912 18.0699 195.932 18.3599C195.852 19.8299 195.712 21.31 195.652 22.78C195.622 23.38 195.372 23.53 194.822 23.52C189.222 23.51 183.622 23.51 177.672 23.51C177.842 22.93 178.082 22.3799 178.382 21.8499C182.412 16.5899 186.462 11.3399 190.532 6.09986C190.732 5.83986 190.922 5.55982 191.302 5.04982Z" fill="#111111"/>
<path d="M145.442 8.38989L146.042 3.33984C146.892 3.48984 147.752 3.59991 148.612 3.65991C152.912 3.68991 157.202 3.68991 161.492 3.65991C162.422 3.59991 163.342 3.48983 164.262 3.32983C164.452 4.89983 164.662 6.65992 164.872 8.41992L164.422 8.51001C164.312 8.12001 164.182 7.73985 164.082 7.34985C163.602 5.43985 163.102 5.0498 161.162 5.0498C159.922 5.0498 158.692 5.06979 157.452 5.03979C156.812 5.02979 156.532 5.20991 156.532 5.90991C156.552 10.8599 156.532 15.8 156.552 20.75C156.552 21.96 157.502 22.7299 159.002 22.8799C159.382 22.9199 159.752 23.0098 160.122 23.0798L160.082 23.3999H150.302L150.212 23.22C150.442 23.09 150.672 22.9899 150.922 22.8999C151.562 22.8199 152.182 22.6399 152.752 22.3599C153.282 21.9599 153.632 21.37 153.722 20.71C153.802 15.76 153.752 10.8199 153.782 5.86987C153.782 5.21987 153.512 5.02979 152.932 5.03979C151.422 5.05979 149.912 5.0398 148.402 5.0498C147.392 5.0598 146.542 5.79003 146.372 6.78003C146.192 7.34003 146.052 7.92 145.902 8.5L145.442 8.38989Z" fill="#111111"/>
<path d="M91.7321 3.76001H101.412L101.472 4.03979C101.222 4.14979 100.962 4.23002 100.692 4.27002C97.6621 4.44002 97.6621 4.43989 97.6621 7.38989V20.48C97.6621 22.04 97.7721 22.1399 99.3821 22.1499C100.622 22.1499 101.862 22.0999 103.092 22.1599C104.462 22.2699 105.772 21.63 106.532 20.49C107.002 19.86 107.512 19.2699 108.002 18.6599L108.352 18.8899C107.592 20.3599 106.852 21.8398 106.062 23.2898C105.982 23.4298 105.642 23.47 105.422 23.47C100.922 23.48 96.4221 23.48 91.9121 23.47C91.7821 23.47 91.6521 23.4199 91.4521 23.1799C91.6821 23.0499 91.9321 22.9399 92.1921 22.8799C94.4221 22.6199 94.8821 22.1199 94.8821 19.8599C94.8821 15.4999 94.8821 11.13 94.8821 6.77002C94.8821 5.09002 94.3721 4.5198 92.6821 4.2998C92.3421 4.2598 92.0121 4.14983 91.6721 4.07983L91.7321 3.76001Z" fill="#111111"/>
<path d="M124.112 3.75H131.322L131.402 4C131.222 4.12 131.032 4.21003 130.822 4.28003C129.442 4.53003 129.132 4.84999 129.122 6.23999C129.102 8.53999 129.112 10.8399 129.112 13.1399C129.112 15.6799 129.112 18.22 129.112 20.77C129.112 22.33 129.302 22.5399 130.842 22.9099C131.022 22.9499 131.172 23.1099 131.252 23.4199H124.082L124.002 23.1899C124.182 23.0799 124.382 22.9899 124.592 22.9199C125.952 22.6699 126.312 22.2898 126.322 20.8398C126.342 17.7498 126.332 14.6598 126.332 11.5698C126.332 9.84982 126.342 8.12992 126.332 6.41992C126.322 4.91992 126.032 4.58979 124.562 4.28979C124.372 4.22979 124.202 4.14003 124.032 4.03003L124.112 3.75Z" fill="#111111"/>
</svg>
