<svg width="218" height="29" viewBox="0 0 218 29" fill="none" xmlns="http://www.w3.org/2000/svg">
<path d="M14.398 -0.00390625V2.19604C13.468 2.32605 12.608 2.40593 11.768 2.57593C5.25801 3.99593 1.13805 10.426 2.55805 16.926C3.97805 23.436 10.408 27.556 16.908 26.136C22.248 24.966 26.138 20.356 26.388 14.896C26.478 13.986 27.218 13.2661 28.138 13.2161H29.618L24.218 6.99609L25.938 5.49609L28.668 8.63599C30.008 10.166 31.338 11.7061 32.678 13.2361C32.888 13.4461 32.948 13.7659 32.828 14.0459C32.728 14.9859 31.878 15.6659 30.938 15.5659C30.828 15.5559 30.718 15.5361 30.608 15.4961C30.118 15.4561 29.618 15.4461 29.128 15.4761C28.768 15.4561 28.628 15.5861 28.588 15.9561C27.698 23.8261 20.598 29.4859 12.728 28.5959C4.85803 27.7059 -0.801982 20.6061 0.088018 12.7361C0.838018 6.10608 6.068 0.865947 12.698 0.0959473C12.818 0.0659473 12.928 0.036084 13.038 -0.013916L14.398 -0.00390625Z" fill="white"/>
<path d="M31.798 -0.00390625C32.708 0.206094 33.638 0.355967 34.528 0.615967C42.118 2.87597 46.438 10.856 44.178 18.446C42.598 23.746 38.118 27.6661 32.658 28.5161C31.938 28.6261 31.198 28.6761 30.418 28.7561V26.4561C34.258 26.4461 37.8581 24.5961 40.1181 21.4961C41.9881 19.0461 42.808 15.946 42.378 12.896C41.578 6.296 35.588 1.58599 28.988 2.38599C23.358 3.06599 18.968 7.57606 18.438 13.2161H21.6781V15.446C21.5181 15.456 21.348 15.4861 21.168 15.4861C19.998 15.4861 18.828 15.5061 17.648 15.4761C17.338 15.4361 17.038 15.316 16.788 15.126C16.188 14.706 15.908 13.9661 16.068 13.2561C16.608 6.4361 21.878 0.945967 28.668 0.115967C28.808 0.0859668 28.938 0.0561035 29.068 0.00610352L31.798 -0.00390625Z" fill="white"/>
<path d="M57.848 11.936C57.958 11.586 58.068 11.2359 58.168 10.8759C59.598 5.4359 64.898 2.25587 70.708 3.34587C71.278 3.45587 71.848 3.59601 72.418 3.73601C73.438 3.97601 74.448 4.23602 75.508 4.49602V9.35588L75.238 9.42595C75.088 9.19595 74.968 8.95598 74.878 8.70598C73.448 2.76598 66.408 3.19601 63.628 6.23601C60.038 10.186 60.168 17.1359 63.998 20.8659C66.198 22.8359 69.308 23.4059 72.068 22.3559C72.758 22.1659 73.198 21.5058 73.108 20.7958C73.038 19.8758 73.098 18.946 73.088 18.016C73.058 16.286 72.438 15.6059 70.718 15.3859C70.288 15.3359 69.858 15.2459 69.438 15.1659L69.478 14.8859H78.268L78.358 15.1059C78.048 15.3059 77.728 15.4659 77.388 15.5959C76.428 15.7659 75.768 16.6659 75.918 17.6359C75.948 18.7359 75.858 19.836 75.948 20.936C76.088 21.646 75.638 22.336 74.928 22.486C74.898 22.496 74.868 22.496 74.838 22.496C73.388 22.896 71.938 23.296 70.488 23.706C70.338 23.766 70.188 23.8259 70.048 23.9059H66.718C66.498 23.8259 66.278 23.756 66.048 23.696C62.628 23.136 59.768 20.7958 58.558 17.5458C58.278 16.8558 58.088 16.146 57.848 15.446V11.936Z" fill="white"/>
<path d="M217.088 23.4861H209.828L209.748 23.196C209.928 23.076 210.118 22.976 210.318 22.906C211.668 22.656 211.998 22.326 212.018 20.926C212.058 19.206 212.028 17.4959 212.028 15.7759C212.028 12.7259 212.028 9.66597 212.028 6.61597C212.028 4.83597 211.898 4.6861 210.188 4.2561C210.018 4.2161 209.888 4.02604 209.828 3.68604H217.088V4.30591C215.308 4.23591 214.818 4.69608 214.818 6.48608C214.818 11.2161 214.818 15.946 214.818 20.676C214.818 22.456 215.248 22.876 217.088 22.866V23.4861Z" fill="white"/>
<path d="M191.298 5.0359H185.488C184.628 5.0359 183.768 5.0259 182.908 5.0359C180.988 5.0559 180.338 5.60607 179.938 7.46607C179.858 7.89607 179.638 8.29596 179.308 8.59596C179.228 8.43596 179.168 8.26595 179.138 8.08595C179.188 6.81595 179.238 5.5459 179.358 4.2859C179.438 3.9959 179.658 3.77606 179.948 3.69606C184.928 3.67606 189.918 3.69607 194.898 3.70607C194.958 3.70607 195.018 3.76603 195.308 3.91603C195.088 4.47603 194.808 5.00612 194.488 5.51612C190.578 10.6161 186.638 15.6859 182.718 20.7759C182.518 21.1059 182.348 21.4659 182.218 21.8259C182.598 21.9259 182.988 21.9959 183.378 22.0359C186.228 22.0559 189.088 22.0459 191.938 22.0459C193.408 22.2259 194.758 21.2061 194.998 19.7461C195.198 19.0061 195.308 18.2461 195.468 17.4961L195.778 17.4861C195.858 17.7661 195.908 18.056 195.928 18.346C195.848 19.816 195.708 21.2961 195.648 22.7661C195.618 23.3661 195.368 23.5161 194.818 23.5061C189.218 23.4961 183.618 23.4961 177.668 23.4961C177.838 22.9161 178.078 22.3659 178.378 21.8359C182.408 16.5759 186.458 11.3259 190.528 6.08595C190.728 5.82595 190.918 5.5459 191.298 5.0359Z" fill="white"/>
<path d="M145.438 8.37598L146.038 3.32593C146.888 3.47593 147.748 3.586 148.608 3.646C152.908 3.676 157.198 3.676 161.488 3.646C162.418 3.586 163.338 3.47592 164.258 3.31592C164.448 4.88592 164.658 6.64601 164.868 8.40601L164.418 8.49609C164.308 8.10609 164.178 7.72594 164.078 7.33594C163.598 5.42594 163.098 5.03589 161.158 5.03589C159.918 5.03589 158.688 5.05588 157.448 5.02588C156.808 5.01588 156.528 5.196 156.528 5.896C156.548 10.846 156.528 15.7861 156.548 20.7361C156.548 21.9461 157.498 22.716 158.998 22.866C159.378 22.906 159.748 22.9959 160.118 23.0659L160.078 23.386H150.298L150.208 23.2061C150.438 23.0761 150.668 22.976 150.918 22.886C151.558 22.806 152.178 22.6259 152.748 22.3459C153.278 21.9459 153.628 21.356 153.718 20.696C153.798 15.746 153.748 10.806 153.778 5.85596C153.778 5.20596 153.508 5.01588 152.928 5.02588C151.418 5.04588 149.908 5.02589 148.398 5.03589C147.388 5.04589 146.538 5.77611 146.368 6.76611C146.188 7.32611 146.048 7.90608 145.898 8.48608L145.438 8.37598Z" fill="white"/>
<path d="M91.728 3.74609H101.408L101.468 4.02588C101.218 4.13588 100.958 4.2161 100.688 4.2561C97.658 4.4261 97.658 4.42598 97.658 7.37598V20.4661C97.658 22.0261 97.768 22.126 99.378 22.136C100.618 22.136 101.858 22.086 103.088 22.146C104.458 22.256 105.768 21.6161 106.528 20.4761C106.998 19.8461 107.508 19.256 107.998 18.646L108.348 18.876C107.588 20.346 106.848 21.8259 106.058 23.2759C105.978 23.4159 105.638 23.4561 105.418 23.4561C100.918 23.4661 96.418 23.4661 91.908 23.4561C91.778 23.4561 91.648 23.406 91.448 23.166C91.678 23.036 91.928 22.926 92.188 22.866C94.418 22.606 94.878 22.1059 94.878 19.8459C94.878 15.4859 94.878 11.1161 94.878 6.7561C94.878 5.0761 94.368 4.50589 92.678 4.28589C92.338 4.24589 92.008 4.13592 91.668 4.06592L91.728 3.74609Z" fill="white"/>
<path d="M124.108 3.73608H131.318L131.398 3.98608C131.218 4.10608 131.028 4.19611 130.818 4.26611C129.438 4.51611 129.128 4.83607 129.118 6.22607C129.098 8.52607 129.108 10.826 129.108 13.126C129.108 15.666 129.108 18.2061 129.108 20.7561C129.108 22.3161 129.298 22.526 130.838 22.896C131.018 22.936 131.168 23.096 131.248 23.406H124.078L123.998 23.176C124.178 23.066 124.378 22.976 124.588 22.906C125.948 22.656 126.308 22.2759 126.318 20.8259C126.338 17.7359 126.328 14.6459 126.328 11.5559C126.328 9.83591 126.338 8.11601 126.328 6.40601C126.318 4.90601 126.028 4.57588 124.558 4.27588C124.368 4.21588 124.198 4.12611 124.028 4.01611L124.108 3.73608Z" fill="white"/>
</svg>
