<svg width="73" height="59" viewBox="0 0 73 59" fill="none" xmlns="http://www.w3.org/2000/svg">
<path d="M48.47 27.7C48.47 41.89 36.38 53.4 36.38 53.4C36.38 53.4 24.29 41.9 24.29 27.7C24.29 13.5 36.38 2 36.38 2C36.38 2 48.47 13.51 48.47 27.7Z" stroke="#111111" stroke-width="3" stroke-linecap="round" stroke-linejoin="round"/>
<path d="M51.61 20.85C55.4 19.07 59.41 17.78 63.52 17.01C63.52 17.01 67.15 30.77 59.65 40.82C52.15 50.87 36.37 53.39 36.37 53.39" stroke="#111111" stroke-width="3" stroke-linecap="round" stroke-linejoin="round"/>
<path d="M65.7 39.61C67.43 40.11 69.12 40.76 70.74 41.55C70.74 41.55 65.81 52.33 56.27 55.61C52.14 56.88 47.73 56.99 43.54 55.94" stroke="#111111" stroke-width="3" stroke-linecap="round" stroke-linejoin="round"/>
<path d="M21.14 20.85C17.35 19.07 13.35 17.78 9.23 17.01C9.23 17.01 5.60001 30.77 13.09 40.82C20.58 50.87 36.37 53.39 36.37 53.39" stroke="#111111" stroke-width="3" stroke-linecap="round" stroke-linejoin="round"/>
<path d="M7.03999 39.61C5.30999 40.11 3.62 40.76 2 41.55C2 41.55 6.93 52.33 16.47 55.61C20.6 56.88 25.01 56.99 29.2 55.94" stroke="#111111" stroke-width="3" stroke-linecap="round" stroke-linejoin="round"/>
</svg>
