<svg width="72" height="58" viewBox="0 0 72 58" fill="none" xmlns="http://www.w3.org/2000/svg">
<path d="M47.967 27.198C47.967 41.388 35.877 52.898 35.877 52.898C35.877 52.898 23.787 41.398 23.787 27.198C23.787 12.998 35.877 1.498 35.877 1.498C35.877 1.498 47.967 13.008 47.967 27.198Z" stroke="white" stroke-width="3" stroke-linecap="round" stroke-linejoin="round"/>
<path d="M51.107 20.348C54.897 18.568 58.907 17.278 63.017 16.508C63.017 16.508 66.647 30.268 59.147 40.318C51.647 50.368 35.867 52.888 35.867 52.888" stroke="white" stroke-width="3" stroke-linecap="round" stroke-linejoin="round"/>
<path d="M65.197 39.108C66.927 39.608 68.617 40.258 70.237 41.048C70.237 41.048 65.307 51.828 55.767 55.108C51.637 56.378 47.227 56.488 43.037 55.438" stroke="white" stroke-width="3" stroke-linecap="round" stroke-linejoin="round"/>
<path d="M20.637 20.348C16.847 18.568 12.847 17.278 8.727 16.508C8.727 16.508 5.097 30.268 12.587 40.318C20.077 50.368 35.867 52.888 35.867 52.888" stroke="white" stroke-width="3" stroke-linecap="round" stroke-linejoin="round"/>
<path d="M6.537 39.108C4.807 39.608 3.11701 40.258 1.49701 41.048C1.49701 41.048 6.42701 51.828 15.967 55.108C20.097 56.378 24.507 56.488 28.697 55.438" stroke="white" stroke-width="3" stroke-linecap="round" stroke-linejoin="round"/>
</svg>
